<svg id="图层_1" data-name="图层 1" xmlns="http://www.w3.org/2000/svg" viewBox="0 0 3434.64 4486.17"><defs><style>.cls-1,.cls-2{fill:#454d64;fill-rule:evenodd;}.cls-2{stroke:#fff;stroke-miterlimit:10;stroke-width:0.75px;}</style></defs><path class="cls-1" d="M2070.57,0c922.9,0,1668.32,753.47,1668.32,1675.37s-745.42,1666.5-1668.32,1666.5-1677.2-744.61-1677.2-1666.5S1147.66,0,2070.57,0Zm0,106.37c860.79,0,1570.7,700.29,1570.7,1569s-709.91,1569-1570.7,1569c-869.66,0-1570.71-700.28-1570.71-1569s701.05-1569,1570.71-1569Z" transform="translate(-393.37)"/><path class="cls-1" d="M686.21,1657.64c44.37,0,71-35.46,71-70.92,0-44.32-26.63-70.91-71-70.91-35.49,0-71,26.59-71,70.91,0,35.46,35.5,70.92,71,70.92Z" transform="translate(-393.37)"/><path class="cls-1" d="M3454.91,1728.55c44.38,0,71-26.59,71-62,0-44.32-26.63-70.91-71-70.91-35.49,0-71,26.59-71,70.91,0,35.46,35.5,62,71,62Z" transform="translate(-393.37)"/><path class="cls-1" d="M1795.47,2287c8.88,0,8.88,0,17.75,8.87v79.78c0,8.86-8.87,8.86-8.87,17.73s8.87,8.86,8.87,8.86c-17.75,17.73,0,53.19-8.87,79.78,0,0,0,17.73-8.88,17.73h-17.75c0-8.86-8.88-97.51,0-106.37h0V2340.2l-8.88-8.87h-35.49c0-35.46,44.37-35.46,62.12-44.33Z" transform="translate(-393.37)"/><path class="cls-1" d="M2319,2269.28c26.63,0,44.37,0,53.24,8.86,8.88,0,8.88,0,8.88,8.86,8.87,0,17.75,0,17.75,8.87v8.87c0,8.86,8.87,17.73,8.87,26.59l-8.87,8.87v8.86c-8.88,17.73-26.63,26.59-17.75,35.45,0,0,0,8.87,8.87,8.87v8.86l17.75,17.73v44.33c-8.87,0-8.87,0-8.87,8.86V2482c-8.88,8.87-8.88,8.87-17.75,8.87,0,8.86-8.88,8.86-8.88,17.73h-17.75v8.87c-35.49,8.86-97.61-26.6-88.73-62.06l8.87-8.86c17.75-8.86,17.75,0,26.62,0,0,26.59,35.5,44.32,53.24,26.59,8.88-17.73,8.88-62-8.86-70.92h-17.76c-8.87-8.86-8.87-17.73-8.87-35.45,26.63-8.87,35.49-8.87,44.37-26.59v-17.73c0-8.87-17.74-26.6-35.5-17.73-8.87,8.86-17.74,35.46-44.37,35.46,0-8.87,0-8.87-8.87-8.87,0-44.33,17.75-44.33,44.37-62Z" transform="translate(-393.37)"/><path class="cls-1" d="M1591.37,2384.51h17.74v17.73H1334c-17.75,0-71,8.87-88.74,0,0-8.86,0-17.73,8.87-17.73Z" transform="translate(-393.37)"/><path class="cls-1" d="M2558.64,2384.51h239.6c26.62,0,79.86-8.86,88.74,0v17.73H2558.64s-8.88-8.86,0-17.73Z" transform="translate(-393.37)"/><path class="cls-1" d="M1937.45,2269.28c17.75,0,17.75,8.86,26.63,17.72h17.75c8.87,0,26.62,26.6,35.5,44.33v26.59l8.86,8.87v35.45c-8.86,0-8.86,0-8.86,8.87v35.46c0,17.73-8.88,35.45-26.63,44.32l-8.87,8.86c-8.88,0-8.88,8.87-17.75,17.74h-17.75c-35.5,0-71-17.74-71-53.19,0,0,8.87,0,8.87-8.87,26.62,0,17.75,8.87,35.5,17.73,8.87,8.86,8.87,0,17.74,8.86,8.88,0,0-8.86,8.88-8.86h17.75c0-8.86,17.75-35.45,0-44.32h-8.88c-17.75,8.87-35.49,0-44.37,0-8.87-8.87-44.37-53.19-35.49-79.78h0v-26.59l8.87-8.87c8.88-8.86,26.62-35.46,35.5-35.46s17.74,0,17.74-8.86Zm-8.87,35.46c-35.49,17.73-35.49,79.77,8.87,88.64,26.63,8.86,53.25-26.59,44.38-62.05,0,0-17.75-17.73-17.75-26.59Z" transform="translate(-393.37)"/><path class="cls-1" d="M2132.68,2269.28c8.88,0,8.88,0,8.88,8.86,8.87,0,17.75,0,26.62-8.86,8.88,8.86,35.5,26.59,44.37,44.32v17.73c8.88,17.73,8.88,35.46,8.88,53.18,0,70.92-17.75,115.24-71,133-17.75-17.74-44.37-17.74-62.11-35.47-8.88-8.86-8.88-17.72-8.88-26.59,0,0,0-8.86-8.87-8.86v-62.06s0-8.86,8.87-8.86c0-8.86-8.87-17.73-8.87-26.59,8.87-8.86,8.87-17.73,17.75-26.59,0-8.87-8.88-17.73,0-26.6s26.61-17.73,44.36-26.59Zm17.75,35.46c-8.87,8.86-26.62,8.86-26.62,26.59-8.88,0,0,8.87-8.88,8.87,0,8.86-8.87,17.72-8.87,17.72v26.59c-8.88,17.73,0,70.92,8.87,70.92,8.88,17.73,26.63,26.59,44.38,17.73,8.87,0,17.75-8.86,26.62-17.73V2420s8.87,0,8.87-8.86v-44.32l-8.87-8.87V2340.2l-8.87-8.87v-8.86c-8.88-8.87-17.75-17.73-26.63-17.73Z" transform="translate(-393.37)"/><path class="cls-1" d="M730.58,1905.84c8.88,0,17.75,0,26.63,8.86v17.73c0,8.87-35.5,8.87-35.5,8.87-8.87,17.73,0,44.32,8.87,53.18,8.88,0,35.5-17.72,44.37-8.86,0,8.86,8.88,8.86,8.88,26.59H757.21v8.87H704v8.86H686.21v8.87c-8.87,0-26.62,0-26.62-8.87s-8.87-8.86-8.87-17.73l8.87-8.86s8.88,8.86,17.75,0c8.87,0,26.62-8.87,26.62-26.59-8.87,0-8.87-8.87-8.87-8.87V1959c-26.62-8.86-35.5,0-44.37,8.86h-8.88c0-8.86,0-17.72-8.87-17.72,0-8.87,0-8.87,8.87-17.74h17.75v-8.86h17.75c8.87,0,17.75-8.87,26.62-8.87s17.75,0,26.62-8.86Z" transform="translate(-393.37)"/><path class="cls-1" d="M3383.92,1941.3c8.88,0,17.76,0,26.63,8.87,0,17.72,8.87,26.59,26.63,35.45l17.73,17.73c17.76,0,26.63-8.87,35.51,0s-8.88,26.59-8.88,35.46c-8.87-8.87-17.75-8.87-26.63-17.73h-44.36s0,8.86-8.87,8.86h-17.76c-8.87,0-17.73,8.87-35.49,0,0-8.86,8.88-8.86,8.88-8.86,8.88-26.6,17.74-8.87,35.49-17.73,8.88,0,8.88,0,17.75-8.87h0c0-17.72-44.36-26.59-35.5-44.31,0-8.87,8.87-8.87,8.87-8.87Z" transform="translate(-393.37)"/><path class="cls-1" d="M792.7,2056.54h0c8.87,0,17.75,26.59,26.62,26.59-8.87,8.86-8.87,17.72-8.87,26.59h8.87v17.73h8.88v17.73l-8.88,8.86c-8.87-8.86-17.75-8.86-26.62-17.72,0-8.87,0-35.47-17.75-35.47h-8.87s-8.87,8.87,0,8.87c0,8.86,8.87,17.73,17.75,17.73l-8.88,8.87c-8.87,0-17.74,8.86-26.62,0v-26.6H730.58c-8.87,0-17.74,8.86-17.74,17.73h8.87v35.46c0,8.86,8.87,8.86,8.87,17.72H712.84s-8.88-8.86-8.88-17.72c-8.87-8.87-8.87-17.73-8.87-26.59-8.88-8.87-17.75-8.87-26.62-26.6L686.21,2092c0-8.86,8.88,0,17.75,0l8.88-8.86h17.74s8.88-8.87,17.75-8.87h8.88c8.87-8.86,26.62-17.72,35.49-17.72Z" transform="translate(-393.37)"/><path class="cls-1" d="M899.19,2287c8.88,0,17.75,8.87,26.63,17.74v8.86c8.86,0,8.86,8.87,17.74,8.87,0,8.86,0,17.73,8.87,26.59l17.75,17.73c-8.87,0-8.87,8.86-8.87,8.86-8.88,0-8.88,0-17.75,8.86-8.88-8.86-8.88-8.86-26.62-8.86h0c0-26.59,8.88-26.59-8.87-53.18-8.88,0-17.76,8.86-26.63,17.73,0,17.72,8.87,17.72,17.75,26.59,0,8.86-17.75,17.72-26.62,8.86s-8.88-17.73-17.75-17.73c-8.88,8.87-17.75,8.87-17.75,17.73s26.62,44.32,26.62,53.19l-8.87,8.87c-17.75,0-17.75-17.74-26.62-26.6-8.88-17.73-26.63-17.73-26.63-35.46,0-8.86,0-26.59,8.88-26.59h8.87c0-8.86,8.88-8.86,8.88-8.86s8.87,0,8.87-8.87h8.87c8.88-8.86,8.88-8.86,17.75-8.86,8.88-8.87,8.88-17.73,17.75-17.73h8.87c0-8.87,8.88-8.87,8.88-17.74Z" transform="translate(-393.37)"/><path class="cls-1" d="M3321.81,2384.51c8.88,0,17.75,0,26.62,8.87l-8.87,8.86V2420c-8.87,8.87-17.75,26.6-26.63,35.46,0,8.87-8.87,17.73-17.74,26.59-17.76,0-17.76-17.72-35.5-26.59s-71-35.46-79.86-53.19c0-8.86,17.75-17.73,26.61-17.73s8.88,17.73,17.75,17.73c8.88,8.87,17.75,8.87,17.75,8.87,17.75,8.86,26.63,26.6,53.25,26.6,8.87-17.74,8.87-35.47,17.74-53.2Z" transform="translate(-393.37)"/><path class="cls-1" d="M970.18,2402.24h8.88l8.87,17.73c-8.87,17.74-26.62,26.6-44.37,35.46,0,8.87-8.88,8.87-17.74,17.73h-8.88c-8.87,8.86-8.87,17.73-17.75,26.59h-8.88c0-8.86-8.87-17.73-17.74-26.59h0l8.87-8.86h17.75c0-8.87,8.88-8.87,8.88-17.73,8.87,0,17.75-8.86,26.61-8.86,8.88-8.87,17.75-17.74,17.75-26.6,8.88,0,17.75,0,17.75-8.87Z" transform="translate(-393.37)"/><path class="cls-1" d="M1050.05,2517.49h8.87l8.88,8.86c0,26.59-8.88,17.73-17.75,26.59-8.87,17.73-35.5,26.59-44.37,44.32,0,17.73,17.75,35.46,26.62,44.32,17.75,0,17.75-8.86,26.62-17.72h8.88s0-8.87,8.87-8.87h8.88c8.87-8.86,17.74-35.46,44.37-17.73h0c-8.88,8.87-17.75,8.87-26.63,17.73-8.87,17.73-44.37,53.18-71,53.18-8.87,0-17.75-8.86-17.75-17.72-8.87,0-8.87,0-8.87-8.87h-8.87L979.06,2615v-26.6c0-8.86,35.49-44.31,44.37-44.31l8.87-8.87c8.88,0,8.88-17.72,17.75-17.72Z" transform="translate(-393.37)"/><path class="cls-1" d="M3046.71,2552.94h17.75c8.88,8.86,17.75,26.59,26.62,26.59v8.86c0,8.87,17.76,17.74,26.62,17.74,0,8.86,17.75,35.45,17.75,35.45v8.87h-71c-8.88,0-26.62-8.87-17.75,8.86,0,8.86,8.87,8.86,17.75,8.86,8.88,8.87,8.88,17.74,17.75,26.6,0,8.86,0,17.73-8.87,17.73-8.88,8.86-8.88,8.86-17.76,0,0-17.73-26.62-26.59-35.5-35.46v-17.73c-8.86,0-17.73,0-17.73-8.86-8.88,0-8.88-8.87-8.88-8.87,0-8.86,8.88-17.72,8.88-17.72,8.87-8.87,35.49-17.73,53.23-8.87l8.88,8.87c0-8.87,8.88-8.87,8.88-8.87,0-26.6-17.76-26.6-26.63-44.32v-17.73Z" transform="translate(-393.37)"/><path class="cls-1" d="M1156.54,2623.86c0,8.86,8.87,8.86,8.87,17.72v44.33c8.88,0,8.88,0,8.88,8.86v26.59l26.62-26.59c8.87-8.86,0-17.73,8.87-17.73l8.88-8.87q13.3,13.3,26.62,26.6h0c-8.88,8.86-35.5,26.59-44.37,35.46h0l-8.88,8.86c0,8.86-8.87,8.86-8.87,17.73l-8.87,8.86s-8.88,8.86-17.75,8.86h-8.88c0-8.86,0-17.72-8.87-17.72l8.87-8.87c0-8.86-8.87-8.86-8.87-8.86,0-8.86,8.87-17.73,8.87-26.59s-8.87-8.87-8.87-17.73,8.87-8.86,8.87-8.86l-8.87-8.87h-8.87l-8.88,8.87c-8.87,17.72-17.75,26.59-26.62,35.45-8.87,0-17.75-8.86-26.62-8.86,0-8.87,0-8.87,8.87-8.87,0-8.86,8.88-8.86,17.75-17.72,8.87-17.74,26.62-35.46,44.37-44.33,0-8.86,8.87-8.86,17.75-17.72Z" transform="translate(-393.37)"/><path class="cls-1" d="M2958,2668.17h0c8.88,8.87,17.75,8.87,17.75,26.6l26.63,26.59c8.87,0,8.87,0,8.87,8.87l26.62,26.59c0,8.86-17.76,17.72-26.62,26.59-8.87-8.87-17.75-35.46-35.5-44.32L2958,2756.82s-8.88,0-8.88,8.86,17.76,26.6,17.76,35.46h8.87V2810c0,8.86-8.87,17.72-17.75,17.72h0c-8.88,0-8.88-8.86-8.88-17.72-8.87-8.87-17.73-8.87-26.61-17.73v-8.87l-17.75-17.73v-8.86c-8.88-8.87-17.75-17.73-26.63-17.73,0-8.86,8.88-8.86,8.88-17.73h17.75c8.87,8.87,17.75,17.73,17.75,26.59h17.74c8.87-8.86,26.63-17.72,26.63-26.59-8.88-8.86-17.76-26.59-26.63-35.45,0-8.87,8.87-17.74,17.75-17.74Z" transform="translate(-393.37)"/><path class="cls-1" d="M1263,2730.23c8.88,0,17.75,0,17.75,8.86V2748c0,8.87-8.87,8.87-8.87,17.73l-17.75,17.73c0,8.87-8.87,17.73-17.75,17.73-8.87,17.73-8.87,26.59-17.74,35.46h-8.88c0-8.87-8.87-8.87-17.75-17.73h0l17.75-17.73v-8.86c8.88,0,8.88-8.87,17.75-8.87v-17.73c8.87,0,17.75-8.86,26.62-17.73v-8.86l8.87-8.86Z" transform="translate(-393.37)"/><path class="cls-1" d="M2842.61,2765.68s8.88,8.86,17.74,8.86c0,0,0,8.87-8.86,17.74-8.88,0-17.75,8.86-26.63,8.86,0,0-17.75,26.59-17.75,35.46,8.88,17.72,26.63,44.32,53.24,35.46,8.88-8.87,17.75-8.87,26.63-17.74,0,0,0-8.86,8.87-8.86,0-8.86,0-17.73-8.87-17.73l8.87-8.86h8.88v17.73s8.87,8.86,8.87,17.72l-17.75,17.74c-8.87,8.86-8.87,17.73-8.87,17.73-35.49,8.86-53.24,17.73-79.87,0-8.87-8.87-35.49-44.33-26.62-62.06,0-8.86,8.87-26.59,17.75-35.45l8.87-17.74c8.88-8.86,26.63,0,35.5-8.86Z" transform="translate(-393.37)"/><path class="cls-1" d="M1325.15,2774.54c8.87,0,17.75,8.87,26.61,8.87l-8.86,8.87v26.59s-8.88,0-8.88,8.86v8.87c0,17.72,0,26.59,17.74,17.72l8.88-8.86c17.75-8.86,35.5-26.59,53.25-17.73h0l-8.88,8.87-17.75,17.72c-8.87,8.87-17.74,8.87-35.5,17.74l-26.61,26.59H1307.4c0-8.86,0-8.86-8.88-8.86,8.88-8.87,8.88-26.6,8.88-35.47v-26.59l8.87-8.86v-26.59c8.88-17.74,0-17.74,8.88-17.74Z" transform="translate(-393.37)"/><path class="cls-1" d="M2718.37,2827.73c8.88,0,17.75,8.87,17.75,17.73s-8.87,17.73-17.75,17.73c0,0-8.87,0-8.87,8.87h-17.76c0,17.73,17.76,26.59,17.76,35.46,17.75,0,17.75-8.87,26.62-17.73h0c8.88,0,17.75,8.86,8.88,17.73v8.86c-8.88,0-17.75,0-26.63,8.86,0,8.87,17.75,26.59,26.63,35.46,0,0,26.62-17.73,35.49-17.73,0-17.73,0-17.73,8.87-26.59h0s0,8.86,8.88,8.86c-8.88,0-8.88,8.87-8.88,8.87,0,8.86,8.88,8.86,8.88,17.72-17.75,17.73-35.49,17.73-53.24,35.47-8.88,0-17.75,17.73-26.63,8.86h0v-26.6L2691.74,2943c-8.86-17.73-8.86-26.59-17.73-44.32-8.88,0-17.76-17.73-17.76-26.59,8.88-8.87,8.88-17.74,17.76-17.74s8.87,0,17.73-8.86l8.88-8.86h8.88s8.87,0,8.87-8.87Z" transform="translate(-393.37)"/><path class="cls-1" d="M1449.38,2845.46c17.75,0,26.62,8.86,35.5,8.86,8.87,8.87,17.75,0,26.62,8.87,8.87,0,8.87,8.87,8.87,8.87,17.75,8.86,8.88,0,26.63,8.86,0,26.6-8.88,17.73-17.75,26.6-8.88,0-8.88,8.86-17.75,8.86h-8.87v-17.73c0-8.86-26.63-26.59-35.5-17.73s-17.75,26.6-8.87,35.46l17.74-17.73,8.88,8.87c0,17.72-8.88,35.45-26.62,44.31,0-8.86-8.88-26.59-26.63-17.72v26.59l26.63,8.86c17.74,8.87,26.62-8.86,35.49,8.87,0,8.87,0,26.6-17.75,26.6-8.87,0-8.87-8.87-17.74-8.87h-8.88s0-8.86-8.87-8.86h-8.88s-8.87-8.87-17.74-8.87c-8.88-8.87-17.75,0-26.63-8.87,0-8.86,17.75-35.45,17.75-44.32,8.88,0,8.88-8.86,17.75-8.86v-8.86c0-17.73,8.87-26.6,17.75-44.33v-8.87l8.87-8.86Z" transform="translate(-393.37)"/><path class="cls-1" d="M2620.75,2889.79h17.76s8.87,17.73,8.87,26.59l-8.87,8.86c-8.88,0-8.88-8.86-17.76-8.86s-26.61,8.86-26.61,17.73c8.88,8.86,17.74,17.72,17.74,26.59v17.73l8.87,8.87c0,8.86,8.88,26.59,8.88,35.45l-17.75,8.87c-17.74-8.87-17.74-44.32-26.62-53.19,0-8.87-8.87-8.87-8.87-17.73-8.87-8.87-8.87-26.59-17.75-17.73-17.75,8.86-17.75,26.59-26.63,35.46-8.86,0-17.74-8.87-17.74-8.87,0-8.86-8.87-8.86-8.87-17.73s8.87-8.86,8.87-17.72v-8.87h26.62c8.87,0,8.87-8.86,17.75-8.86h8.88c17.74-8.86,17.74-17.73,26.62-17.73H2603c8.86,0,17.73-8.86,17.73-8.86Z" transform="translate(-393.37)"/><path class="cls-1" d="M1733.35,2943c17.75,0,26.63,8.86,35.49,17.73,0,8.86,8.88,8.86,8.88,8.86,8.87,8.87,0,26.6,0,26.6-17.74,8.87-17.74-8.86-26.62-17.73h-35.5v8.87c17.75,8.86,26.63,26.59,44.38,44.32,0,17.72-8.88,53.18-17.75,53.18-26.63,8.87-79.87-8.86-79.87-17.73h0v-8.86c0-8.87,8.88-17.73,8.88-26.59,0,0,0-8.87,8.87-8.87h0c8.87,17.73,8.87,26.59,8.87,35.46,17.75,0,26.62,8.86,35.5,8.86,8.87-8.86,8.87-8.86,8.87-17.73s-8.87-8.86-17.75-17.72v-8.87L1689,2996.16v-26.6c8.87-17.73,26.62-17.73,44.37-26.59Z" transform="translate(-393.37)"/><path class="cls-1" d="M2425.53,2943h8.88c8.86,8.86,8.86,44.33,0,53.19h0c0-8.86,0-8.86-8.88-8.86-8.87-8.87-35.5,0-35.5,8.86s8.88,8.87,8.88,17.73c8.87,0,17.75-8.86,26.62-8.86l17.74,17.72h0c-8.86,17.73-17.74,8.87-35.49,8.87,0,8.86,0,8.86-8.87,8.86,8.87,17.73,17.75,44.32,17.75,53.19h0c-8.88,0-26.63,8.86-26.63,0h0s0-8.87-8.87-17.73h0v-26.6s-8.88,0-8.88-8.86v-8.86l-8.87-8.87v-8.86c0-8.86-8.88-17.73-8.88-35.46,8.88,0,8.88-8.87,17.75-8.87h8.88c8.87,0,44.37-17.73,44.37-26.59Z" transform="translate(-393.37)"/><path class="cls-1" d="M1813.22,2978.43h26.62c0,17.73-8.87,17.73-8.87,26.6v35.45l-8.88,8.86v26.6s0,8.86-8.87,8.86c0,8.87,8.87,8.87,0,17.73-8.87-8.86-26.63,0-35.5-17.73,8.87,0,8.87,0,8.87-8.86v-17.73l8.88-8.87v-8.86s0-8.86,8.88-8.86v-53.19Z" transform="translate(-393.37)"/><path class="cls-1" d="M1875.34,2978.43c8.87,0,8.87,8.87,8.87,8.87h35.5c8.87-8.87,17.74,0,26.62,0h17.75c0,8.86,8.87,17.73,8.87,26.59h0c-17.75,0-17.75-8.86-26.62-8.86-17.75,8.86-8.88,26.59-17.75,53.18v17.73c-8.87,8.86,0,26.59-8.87,35.46,0,8.86-8.88,8.86-17.75,0-8.87,0-8.87-8.87-8.87-17.73H1902v-62.05c8.87-8.87,0-17.73,0-26.59-8.87,0-17.75-8.87-26.62,0-8.88-8.87-8.88-8.87-8.88-17.73,0,0,0-8.87,8.88-8.87Z" transform="translate(-393.37)"/><path class="cls-1" d="M2106.06,2987.3h8.87v8.86c0,17.73-8.87,17.73-17.75,26.59v17.73c0,8.86-8.86,0-8.86,8.86-8.88,0-17.75,17.73-26.63,26.6,0,8.86,8.88,35.46,0,44.32h-17.75c-8.87-8.86,0-26.59-8.87-44.32,0-17.73-17.74-26.6-17.74-35.46v-17.73c-8.88,0-8.88,0-17.75-8.86h0c8.87-8.86,17.75-17.73,26.61-8.86s17.75,26.59,17.75,35.45h17.75c8.88-8.86,26.63-26.59,35.49-44.32,0,0,8.88,0,8.88-8.86Z" transform="translate(-393.37)"/><path class="cls-1" d="M3339.56,2083.13h17.75V2092c-8.88,8.86-17.75,17.73-26.62,35.46h0c8.87,8.87,0,26.59,0,26.59,8.87,8.87,53.23,35.46,71,26.59v-8.86c8.87-8.86,26.62-8.86,26.62-26.59-8.88-8.86-17.75-8.86-26.62-17.73,0-8.87,8.87-17.73,17.74-26.6,8.88,0,26.62,17.73,26.62,26.6,8.87,8.87,0,8.87,8.87,17.73-8.87,26.59-35.49,53.18-62.11,62.05-8.88,8.86-26.61,0-35.49,0s17.74,26.59,17.74,35.46c8.87,0,17.75,8.86,17.75,17.72h0v17.73l-8.88,8.86v26.6h0l-17.73,17.73h-26.63l-8.87,8.87c-17.76,8.86-26.63-8.87-35.5-8.87h-8.88c-8.88,0-26.62-35.46-26.62-35.46v-53.18s0-8.87,8.88-8.87V2225h8.86c17.76-17.73,26.63-17.73,53.26-17.73h17.74c-8.87-17.73-26.62-26.6-35.5-44.32v-35.46c8.88-8.87,0-17.73,8.88-26.6,0-8.86,17.75-8.86,17.75-17.72Zm-53.25,150.69h0c0,8.87-17.74,26.59-8.88,44.32,0,8.86,44.38,35.46,53.26,35.46l8.87-8.86v8.86h17.75c0-8.86,0-8.86,8.88-17.73,8.86,0,17.73-8.87,8.86-17.73,0-17.73-44.36-44.32-53.24-44.32Z" transform="translate(-393.37)"/><path class="cls-1" d="M3162.08,2455.43c62.11-8.86,97.61,62.06,62.11,115.24-17.75,8.86-44.36,17.72-79.86,17.72-17.75-8.86-53.25-53.18-44.37-88.64,0,0,8.88,0,8.88-8.86v-17.73s17.74-17.73,26.61-17.73ZM3144.33,2482c-35.49,26.6-8.88,62.06,17.75,70.92h44.36l8.88-8.86h8.87v-17.73L3179.83,2482Z" transform="translate(-393.37)"/><path class="cls-1" d="M2256.92,2987.3c17.75,0,26.62,8.86,44.37,17.73h8.88c8.87,0,26.62,35.45,26.62,35.45v26.59c0,8.87,0,8.87-8.88,8.87v17.73l-35.49,35.45H2265.8V3138c-8.88,0-8.88-8.87-8.88-8.87-26.62-8.86-26.62-17.72-35.49-44.32-8.88-8.86-17.75-17.73-17.75-35.46,0,0,8.87,0,8.87-8.86v-8.86l35.5-35.46c8.87-8.86,0-8.86,8.87-8.86Zm0,17.73c0,8.86-8.87,17.72-17.75,17.72,0,35.46,0,88.65,35.5,88.65h17.75c0-8.87,8.87-17.73,17.75-17.73,0-44.33-8.88-88.64-53.25-88.64Z" transform="translate(-393.37)"/><path class="cls-1" d="M1564.74,2898.65c17.75,0,26.63,17.73,35.5,17.73,8.87,8.86,17.75,0,17.75,0,17.75,8.86,35.5,26.59,26.62,44.32v17.73c-26.62,8.87-35.5,17.73-17.75,44.32H1618c0,8.87,8.87,17.73,8.87,26.59-8.87,0-17.75,0-26.62-8.86,0-8.86-8.87-8.86-8.87-17.73,0-17.72,0-17.72-8.88-26.59,0-8.86,0-8.86-8.87-8.86s0,8.86-8.88,17.73v8.86c-8.87,8.86,0,8.86-8.87,17.73h0c-8.87,0-17.75-8.87-17.75-8.87-8.87-17.72,8.88-53.19,17.75-62.05-8.87,0-8.87-8.87-8.87-8.87,8.87-8.86,17.74-17.72,17.74-26.59v-26.59Zm26.63,26.59s-8.88,8.87-8.88,17.73v17.73c8.88,17.73,35.5,17.73,35.5-8.87-8.88-8.86-8.88-17.72-8.88-26.59Z" transform="translate(-393.37)"/><path class="cls-1" d="M837.07,2180.63h8.87c8.88,0,17.75,8.87,17.75,26.6-17.75,8.86-44.37,8.86-53.24,26.59,8.87,0,8.87,8.87,17.75,8.87,26.62,0,17.74-8.87,35.49-17.73h8.88c0,8.86,8.87,8.86,8.87,17.73h-8.87v17.72s-17.75,8.87-26.63,8.87h-8.87c-8.87,0-8.87,17.72-17.75,26.59,0,0-8.87,8.87-17.75,8.87-35.49,0-53.24-26.6-62.11-53.19,0-8.86-8.88-17.73-8.88-26.59h0c17.75,0,17.75-8.87,26.63-8.87H775l8.88-8.86c17.74-8.87,44.37-17.73,53.24-26.6Zm-44.37,53.19c-8.87,8.87-17.75,17.73-26.62,17.73-8.87,8.86-8.87,8.86-8.87,17.73,8.87,8.86,17.74,8.86,35.49,8.86,8.87-8.86,26.62-26.59,17.75-44.32Z" transform="translate(-393.37)"/><path class="cls-1" d="M748.33,1108.05H775c8.88,8.86,26.62,26.59,17.75,44.32-26.62,0-44.37,8.86-62.12-17.73,0-17.73,8.88-17.73,17.75-26.59Z" transform="translate(-393.37)"/><path class="cls-1" d="M1839.84,363.44h26.62L1893.09,390v17.73c8.87,17.73,0,26.6,8.87,35.46s17.75,0,35.49,0c8.88,8.86,8.88,8.86,17.75,8.86,0,8.87,8.88,26.59,0,35.46,0,17.73-26.62,26.59-44.37,26.59h-17.74c-8.88,0-26.63,8.87-35.5,17.73l-8.87,8.87c-8.88,8.86-17.75,8.86-17.75,8.86l-26.62,26.59H1760v-8.86c17.74-35.46,79.86-70.92,79.86-106.37,0-8.87-8.87-8.87-8.87-17.73-17.75,17.73-62.13,17.73-62.13-8.86V416.62l35.51-35.45c8.87-8.87,26.62-8.87,35.49-17.73Z" transform="translate(-393.37)"/><path class="cls-1" d="M3100,638.23s0,8.87,8.88,8.87c0,0,8.86,26.59,0,26.59,0,17.73-26.63,26.6-26.63,35.46-8.87,17.73,8.87,26.6,8.87,35.46-17.74,35.45-35.5,8.86-53.24,0s-26.62,8.86-35.49,8.86c-8.88,8.87-8.88,0-17.76,8.87,0,0,0,8.86-8.87,8.86v44.32h0v17.73c0,8.87-8.87,17.73-8.87,26.59s0,8.87,8.87,8.87v79.78c8.87,8.86,8.87,17.72,8.87,35.45h0c-17.74,0-26.62-17.73-35.5-26.59h-8.87l-17.74-26.59v-62c0-8.87,8.88-17.73,8.88-26.59v-26.6h8.86V788.93c-8.86-17.73-26.62-8.87-35.49,0h-71s0-8.87-8.88-8.87-17.75-8.86-26.62-17.72h79.86c0-8.87,8.88-8.87,8.88-8.87h26.62c8.88,0,35.49-17.72,35.49-26.59h0c0-8.86-8.87-8.86-17.73-17.73,0-17.73,0-35.46,8.86-44.32,17.75,0,26.63,8.86,35.5,8.86s17.75,0,26.63,8.86c8.87,0,26.61,17.74,53.23,8.87,8.88-8.87,26.63-35.46,35.5-44.32l8.88-8.87Z" transform="translate(-393.37)"/><path class="cls-1" d="M3197.58,1090.32c17.74,0,35.49,8.86,44.36,8.86v17.73h-17.75c0,8.86-8.87,8.86-8.87,8.86h-8.88c-8.86,8.87-17.74,0-26.61,8.87H3153.2v8.86l-17.75-17.73s8.88,0,8.88-8.86v-8.86c8.87,0,8.87-8.87,17.75-8.87,17.75-8.86,26.62,0,35.5-8.86Z" transform="translate(-393.37)"/><path class="cls-1" d="M3357.31,1099.18c8.88,0,26.61,8.87,26.61,8.87h0c0,17.72-35.49,44.32-44.36,44.32-17.75,8.86-35.5,0-35.5-8.87,0-17.73,17.75-35.45,35.5-35.45,8.87-8.87,8.87,0,17.75-8.87Z" transform="translate(-393.37)"/><path class="cls-1" d="M3410.55,1143.5h17.75c8.88,26.6-8.88,44.33-8.88,53.19s17.76,8.86,17.76,8.86H3446c8.87,8.87,26.63,0,44.38,0h8.87c0,8.87,17.75,17.73,17.75,17.73v26.59c-8.87,26.6-35.5,44.33-62.13,26.6-8.87,0-26.61-26.6-35.49-35.46,0-8.86-17.74-8.86-26.62-17.73v-8.86c-8.88,0-26.61-17.73-35.49-26.59,17.74-8.87,8.88-8.87,8.88-17.73,8.86-17.73,26.61-17.73,44.36-26.6Z" transform="translate(-393.37)"/><path class="cls-1" d="M3268.57,1152.37c17.74,8.86,35.49,17.73,44.36,26.59,26.63,26.59,62.12,53.19,71,97.51,0,0,8.88,0,8.88,8.87v26.59c8.88,8.86,0,8.86,0,17.73v17.72s-26.61,17.73-35.49,17.73c-8.88-8.86-8.88,0-17.75-8.86-8.87,0-8.87-8.87-17.75-8.87,0-8.86-8.88-8.86-17.75-8.86v-17.73s-8.87,0-8.87-8.86,0-8.86-8.88-17.73h-17.74c-8.88,0-8.88-8.86-26.63-8.86h-26.62c-8.88,8.86-17.74,8.86-26.62,17.73,0,26.59,17.74,44.31,26.62,62v17.73l8.87,8.87s-8.87,0-8.87,8.86,0,17.73-8.88,17.73c-17.74,0-26.61-8.86-35.49-26.59v-26.6c0-8.86-8.87-35.45-26.62-35.45,0-8.87-26.63-8.87-35.49-8.87h-71c-8.88-8.86-17.76,0-17.76-8.86-26.61-8.86-8.86-44.33,8.88-53.19h0c0,8.86,8.88,17.73,8.88,26.6,17.74,8.86,71,26.59,88.74,0,0-8.87-8.88-8.87-8.88-17.74v-8.86c0-17.73-17.74-26.59-26.62-44.32v-8.87l-8.87-8.86v-8.86h8.87c8.88,17.72,26.62,26.59,44.37,44.32,8.88,8.86,8.88,26.59,26.63,35.45,0,8.87,17.75,8.87,17.75,0,8.87,0,17.75-17.73,35.49-17.73,8.87-8.86,17.75,17.73,35.5,0,17.75-8.86,0-26.59,17.75-35.45h0c8.86,0,8.86,8.86,8.86,8.86s0,8.87,8.88,8.87c0,8.86,17.75,8.86,17.75,26.59v35.46c0,8.87,35.5,17.73,53.25,8.87,8.88-17.73-8.88-26.6-8.88-44.33-8.87-8.87-17.74-17.73-17.74-35.46-8.88,0-8.88,0-17.76-8.86v-8.87c-8.87-8.86-26.62-17.72-35.5-35.45v-8.87h-8.86v-8.86Z" transform="translate(-393.37)"/><path class="cls-1" d="M863.69,895.3c26.62,0,44.38,35.46,35.5,62.05v8.86c-8.88,17.73,0,17.73-8.88,26.6,0,8.87,8.88,8.87,8.88,8.87v26.59c8.88,35.45,17.75,53.18,44.37,70.91,0,0,0,8.87,8.87,8.87h0c0-26.6,8.88-35.46,17.75-53.19-8.87-17.73-44.36-17.73-35.5-53.18,8.88-17.74,26.63-17.74,53.25-8.87,0,0,8.88,8.87,17.75,8.87,0,0,8.87,0,17.75,8.86,0,0,8.87,0,8.87,8.86h17.75l8.87,8.87c17.75,8.86,26.63,8.86,44.37,17.72,0,8.87,8.88,8.87,8.88,8.87l8.87,8.86c8.88,0,8.88,0,17.75,8.87,0,0,8.87,0,17.75,8.86,8.87,0,26.62,26.6,26.62,26.6l-8.87,8.86v8.86c-8.88-8.86-8.88-8.86-8.88-17.72-8.87-8.87-17.75-8.87-35.49-8.87,0,0-8.88-8.86-17.75-8.86,0,0-8.88-8.87-17.75-8.87l-35.5-8.86c-8.87,0-8.87,0-8.87,8.86s17.75,26.6,17.75,35.46c8.87,17.73-8.88,26.59-17.75,44.32,0,8.87,8.87,17.73,0,17.73,0,8.87-8.87,8.87-8.87,8.87l-8.88,8.86h0c17.75,26.59,53.25,26.59,53.25,62,0,8.86-8.88,26.6-8.88,26.6-17.75,8.86-35.49,0-53.24,0H961.31l-8.88-8.87h-8.87c-8.88,0-8.88,0-8.88-8.87-17.74,0-26.61-8.86-44.37-17.73l-8.87-8.86h-8.87c-8.88-8.86-17.75-17.73-26.63-17.73-17.74-8.86-53.24-35.45-44.37-53.18s53.25-17.73,62.12-8.87l35.5,35.46c17.75,0,26.63,8.86,44.37,8.86,0,8.87,8.87,17.73,17.75,17.73h17.75c0,8.87,8.87,8.87,8.87,8.87h8.88l8.87,8.86h26.62v-8.86c0-8.87-8.87-17.73-17.75-26.6-8.87,0-8.87-8.86-17.74-8.86L979.06,1179c-8.88,0-8.88-8.86-17.75-8.86-26.63-17.73-44.37-53.19-71-70.92h-8.87c0,17.73-35.5,35.46-44.37,17.73-8.87,0,0-8.86,0-17.73H828.2v-44.32s-8.88,0-8.88-8.87V930.76C828.2,913,854.82,913,863.69,895.3Zm142,203.88h-8.87c0,8.87,8.87,17.73,8.87,26.59h17.75s0-8.86-8.88-8.86c0-8.86-8.87-17.73-8.87-17.73Z" transform="translate(-393.37)"/><path class="cls-1" d="M1192,487.54c17.75,0,17.75,0,26.63,8.86,0,0,8.87-8.86,8.87,0,8.87,0,8.87,8.87,17.75,8.87h8.87c0,8.86,0,17.73,8.87,26.59l17.75,17.73h0c0,8.86,8.88,17.73,8.88,17.73,8.87,8.86,26.62,35.46,44.37,26.59,8.88,0,8.88-8.86,8.88-17.73,8.86,0,17.74-8.86,17.74-8.86,8.88,0,26.62,17.73,17.75,26.59v26.6c0,8.86-8.87,8.86-8.87,8.86l8.87,17.73c0,8.86,35.5,44.32,53.24,44.32,17.75,8.87,35.5-17.73,62.12,0,8.88,8.87,8.88,44.33-8.87,53.19,0-8.86,0-17.73-8.88-17.73-17.74-8.86-17.74,0-26.62,0-8.87,8.87-35.49,0-44.37,0-17.75-8.86-17.75-35.46-44.37-35.46-17.74,8.87,0,17.73-8.88,44.33V771.2l-8.86,8.86v26.6c0,17.73-8.88,26.59-17.75,35.46-44.38,0-44.38-53.19-62.13-88.65-8.87,0-17.74,0-17.74,8.87s-8.88,8.86-8.88,8.86h-17.74c-8.88-8.86-8.88-8.86-8.88-26.59,0,0,0-8.86,8.88-8.86V718s8.87-8.87,0-17.73c-8.88-26.6-53.25-62.06-44.37-88.65,8.87-17.73,44.37-8.86,53.24,0,17.75,8.87,44.37,35.46,44.37,44.32v17.73c8.87,0,17.75,8.86,17.75,17.73,8.87,8.87,17.75,17.73,35.5,8.87,0-8.87,8.87-8.87,8.87-17.74-8.87-8.86-8.87-26.59-17.75-44.32s-35.5-35.45-53.25-53.18c0-8.87-8.87-17.73-17.74-26.6h-17.75c0-8.86-8.87-8.86-8.87-17.72-8.88,0-17.75,0-17.75-8.87-8.88,0-17.75-8.86-17.75-17.73,0-17.73,0-17.73,8.87-26.59Zm97.62,283.66v8.86c0,8.87,8.87,35.46,17.75,44.33h8.87v-8.87c0-8.86,8.88-26.59,0-35.46-8.87,0-8.87-8.86-26.62-8.86Z" transform="translate(-393.37)"/><path class="cls-1" d="M2452.15,257.07h26.62c8.88,8.86,17.75,17.73,17.75,26.59l8.88,8.86c0,26.6-17.75,44.33-26.63,62.06h8.88c0,8.86,8.87,8.86,17.75,0s0-17.73,8.87-35.46c0-8.87,8.88-8.87,8.88-8.87,8.86-17.73,8.86-26.59,17.74-35.45,35.5,8.86,26.63,8.86,44.37,35.45,17.76,0,26.62-17.73,44.37,0,0,26.6-17.75,35.46-26.61,44.33-8.88,0-8.88,8.86-8.88,8.86h-8.88c-8.87,8.86-17.74,8.86-17.74,8.86h-17.76c0,8.87-8.87,8.87-17.75,8.87V390c8.88,8.86,17.75,8.86,35.51,8.86l8.87,8.87H2603c17.73,8.86,44.36,26.6,17.73,53.19,0,0-8.87,0-8.87-8.87h-35.49c-8.87,0-8.87-8.86-8.87-8.86h-17.76s-8.87-8.86-17.75,0c-8.86,0-17.74,35.45-17.74,44.32-8.87,17.73-26.62,17.73-35.5,35.46,0,8.86,0,8.86-8.87,17.73-8.88,0-17.75,8.86-26.63,17.72,8.88,8.87,17.75,17.73,17.75,35.46-8.87,0-8.87,8.87-17.75,17.73h-8.86v8.87c8.86,8.86,17.74,8.86,26.61,17.72s17.75,8.87,17.75,17.73c8.88,26.59-17.75,44.33-35.5,26.59-8.86-8.86,0-17.72-8.86-17.72,0-8.87-26.63-26.6-35.5-17.73-17.75,8.86-26.63,26.59-44.38,44.32l-8.86-8.87V638.23h-35.5l-8.88,8.87c-17.75,8.86-26.62-8.87-35.49-17.73,0-8.86,17.74-17.73,17.74-26.59,8.88-8.87,8.88-17.73,26.63-8.87,0,26.6,44.36,26.6,62.11,8.87,0-8.87,0,0-17.75-8.87v-8.86h-17.74c-8.88,0-17.75-8.87-8.88-26.6h0c26.62-8.86,62.12,0,71-8.86h0c0-8.86-17.75-17.73-17.75-26.59,8.87-26.6,35.5-17.73,8.87-44.33h0c17.75-8.86,26.63,0,26.63-26.59V434.36c0-8.87,0-8.87-8.88-8.87-26.62,0-97.61,0-115.36-8.87,0,0-17.75-8.86-8.88-17.73,0,0,0-8.86,8.88-8.86h17.75l8.87-8.86h17.75c17.74,0,26.62,0,35.49-8.87h0c0-8.86-8.87-17.72-17.75-26.59,0-8.86,35.5-53.19,35.5-53.19,26.63,0,26.63,8.87,35.5,17.73,17.74-17.73,17.74-35.45,26.62-53.18Zm-44.37,97.51c0,8.86-17.75,8.86-8.87,17.72h0c8.87,8.87,17.75,8.87,17.75,0h0V354.58Zm-26.62,17.72Z" transform="translate(-393.37)"/><path class="cls-1" d="M2097.18,859.84h8.88c8.87,8.87,8.87,35.46,0,53.19h-8.88c-8.86-8.86-8.86-35.46,0-53.19Z" transform="translate(-393.37)"/><path class="cls-1" d="M2549.76,992.81c8.88,0,35.5,8.87,35.5,17.73v8.86h0c-17.74,0-35.5-8.86-44.37-17.72h0l8.87-8.87Z" transform="translate(-393.37)"/><path class="cls-1" d="M2549.76,1019.4c8.88,0,17.76,8.87,17.76,8.87v8.86c-8.88,17.73-26.63,8.86-35.51,0,0-8.86,8.88-8.86,17.75-17.73Z" transform="translate(-393.37)"/><path class="cls-1" d="M2256.92,1515.81c8.88,0,35.5,0,44.37,8.86s0,35.46,0,62c0,0,0,8.87,8.88,8.87,0,17.72,0,26.59-8.88,44.32v17.73c0,8.86,8.88,8.86,8.88,17.73-8.88,8.86-26.63,8.86-35.5,8.86-26.62,0-71-8.86-88.74,0-8.87,8.86-8.87,17.73-8.87,35.45,0,26.6-8.88,70.92,8.87,70.92,8.87,8.87,17.75,0,26.62,0h44.37c8.88-8.86,8.88,0,17.75,0h17.75s17.75,8.87,17.75,17.73-8.88,8.86-8.88,26.59c8.88,0,8.88,8.87,8.88,8.87,0,8.87-8.88,17.73-8.88,26.6l8.88,8.86c0,17.73,0,62-8.88,70.92-35.49,8.86-62.12,8.86-97.61,0-8.88,0-8.88,8.86-26.62,8.86-44.38-8.86-97.62-8.86-133.12,0h-35.49c-17.75-8.86-53.25-8.86-71,0h-26.62c-17.74-8.86-53.24,8.86-62.11-8.86V1897c0-17.73,8.87-44.32,8.87-62.06s-8.87-35.45,0-44.32c17.75-8.86,35.5,8.87,44.37,8.87,0-8.87,8.87-8.87,8.87-8.87,8.88,0,17.75,8.87,17.75,8.87,8.87,0,8.87-8.87,17.75-8.87s17.75,0,26.62-8.86v-26.59c0-26.6,0-44.33-8.87-70.92H1857.59c0-8.86-8.87-17.73-8.87-35.46,8.87,0,8.87-8.86,8.87-8.86v-44.32c-8.87-17.73-8.87-62.06,8.87-70.92h97.62c8.87,0,8.87,0,8.87-8.86,8.88,0,8.88,8.86,17.75,8.86,0,0,8.88,0,8.88-8.86,17.75,8.86,26.61,8.86,44.36,8.86h115.37c26.62,0,71,8.86,97.61-8.86Z" transform="translate(-393.37)"/><path class="cls-1" d="M2727.25,2180.63c8.87,0,17.75,8.87,17.75,8.87h35.49c17.75-8.87,35.5-8.87,44.37,0,17.75,0,35.49-8.87,53.24,0,0,8.86-8.87,8.86-8.87,8.86-17.74,26.6-26.62,8.87-53.24,17.73H2709.5c-17.76,8.87-44.37,0-53.25,0h-71c-8.87,0-8.87-8.86-17.74-8.86-8.88,8.86-8.88,8.86-17.76,8.86-8.87,8.87-8.87,0-8.87,0H2505.4c-8.88,0-17.75,8.87-26.63,0H2283.54c-8.87,0-17.74,8.87-26.62,0h-8.87c-8.88,0-8.88,0-17.75,8.87-8.87-8.87-26.62-8.87-44.37-8.87h-53.25c-35.5,8.87-79.86,8.87-115.35,0h-71c-17.75,0-26.62,8.87-44.37,8.87-17.75-8.87-26.62,0-44.37-8.87h-17.75c-8.87,0-8.87,8.87-17.75,8.87-17.74,0-44.37,0-53.25-8.87-17.74,0-26.61,0-35.49,8.87-26.62-8.87-62.11-8.87-79.86-8.87H1538.12s-17.75,8.87-26.62,8.87c0-8.87-8.87-8.87-8.87-8.87-8.88,0-8.88,0-17.75,8.87-8.88,0-17.75-8.87-26.62-8.87h-26.63c-8.87,0-8.87-8.86-17.74-8.86-8.88,8.86-8.88,8.86-17.75,8.86h-8.88c-8.87,0-8.87,8.87-17.74,8.87H1342.9c-26.63-8.87-71,8.86-71-26.6,17.75-8.86,35.5,0,53.25-8.86h62.11c35.5,0,79.87,8.86,115.37,0,8.87,0,8.87,8.86,26.62,8.86,0-8.86,8.87-8.86,8.87-8.86h124.24c8.88,0,35.49-8.87,62.12,0h186.35c35.5,0,97.62-8.87,142,0,8.87,0,26.62-8.87,44.36,0H2469.9c0-8.87,8.87,0,8.87,0h186.36c8.88,0,62.12,0,62.12-8.87Z" transform="translate(-393.37)"/><path class="cls-1" d="M1609.11,868.71c35.5,0,62.13,0,79.87,17.73,8.87,0,17.75,17.73,26.62,26.59s17.75,17.73,17.75,35.46c8.88,26.59,0,53.19-8.87,70.91v17.73c0,8.86-8.88,17.73,0,26.59,0,8.87,17.75,0,26.62,8.87,8.88,0,17.74,8.86,26.62,8.86h35.5c8.87,8.87,17.75,17.73,26.62,17.73,8.88,8.87,17.75,0,26.62,8.87s26.63,35.45,26.63,44.32c0,0,0,8.86,8.87,8.86,0,8.87,8.87,17.73,17.75,26.6v17.72c8.87,0,8.87,8.87,17.74,17.73,8.88,17.73-8.87,26.59,0,35.46,0,8.86,0,17.73,8.88,17.73,0,8.87,0,17.73,8.87,35.46h0c8.88-8.86,0-26.59,8.88-44.33,0-8.86,0-8.86-8.88-17.73,0-8.86,8.88-17.72,8.88-35.45s-8.88-35.46,0-62.05c0,0,0-8.87,8.87-17.73,8.88,0,44.38,8.86,35.5-8.87h-44.37c-26.63-17.72-26.63-62-8.88-79.78,8.88-8.86,17.75-8.86,26.63-8.86,8.87,8.86,17.75,8.86,17.75,8.86,8.87,8.87,17.75,26.6,26.61,26.6,8.88,8.86,17.75,0,17.75,0,26.63-8.87,26.63-8.87,26.63-35.46v-26.59h-8.88c0,8.86-17.75,35.45-26.62,26.59,0,0-26.62-26.59-26.62-35.45,8.88-8.87,8.88-8.87,8.88-17.74h-17.75c0-8.86,0-17.73,8.87-26.59,8.88,0,17.74,8.86,26.62,0h0c0-17.73-35.49,0-35.49-17.73-8.88-26.59,26.61-8.86,35.49-8.86V921.9c-8.88-8.87-17.74-17.73-17.74-26.6h8.86c8.88,0,8.88,8.87,17.75,8.87h17.75c-8.87-17.73-8.87-17.73-17.75-26.6,17.75-26.59,44.38,8.87,35.5,26.6,0,8.86-17.75,8.86-17.75,17.73-8.87,8.86-8.87,44.31-8.87,53.18s0,8.86,8.87,8.86c0,8.87,0,8.87,8.88,17.74l17.75-17.74c0-26.59-8.88-44.32,8.86-53.18,0,0,8.88-8.86,8.88,0h8.87v26.59c8.88,8.86-8.87,17.73,0,35.46h17.75c17.75-8.87,8.88-26.6,8.88-44.32V930.76c0-8.86-17.75-8.86-17.75-17.73-8.88-8.86,8.87-35.46,17.75-44.32h0l8.87,8.86c8.88,8.87-8.87,17.73,0,26.6V913c8.88,0,17.75-8.86,26.63-8.86h0V913c0,8.87-8.88,8.87-8.88,17.73h0c8.88,0,17.75,0,26.62,8.86h0c0,8.87-8.87,8.87-8.87,17.73v17.73l-8.87,8.86c0,8.87,8.87,8.87,8.87,17.74l-8.87,8.86c-8.88,0-8.88-8.86-17.75-8.86h0c0,8.86,0,8.86,8.87,17.72,0,26.59-35.5-8.86-35.5,0h0c-8.87,17.73-8.87,26.59,0,44.32,0,0,8.88,8.87,17.75,8.87,26.63,8.86,53.25,0,53.25,26.59,8.87,17.73-17.75,17.73-8.88,35.46h0c17.75,8.86,35.5,0,44.37,17.73,8.88,0,0,17.73,0,26.59,8.88,17.73,0,26.59,0,44.32v44.32h8.88c8.87,0,26.62-35.45,35.49-44.32l35.5-35.45c8.87-8.87,8.87-8.87,8.87-17.73,8.88,0,8.88-8.87,8.88-8.87,17.74-17.73,26.62-35.46,44.37-53.18,17.75-8.87,71-8.87,79.86-26.6,0-8.86-26.61-44.32-26.61-53.18-8.88-8.87-8.88-26.59-8.88-35.46s0-26.6,8.88-35.46c0-8.86,8.86-8.86,8.86-17.73,8.88-8.86,8.88-17.72,17.75-26.59,8.88,0,8.88,0,17.75-8.86l8.88-8.87c8.87,0,44.36-8.86,62.11-8.86l8.88,8.86h17.75c8.87,0,26.63,8.87,35.49,17.73v8.87c8.87,8.86,17.75,8.86,26.63,17.72s8.87,44.32,0,62.06c0,8.86-8.88,8.86-8.88,17.72-8.88,0,0,8.87-8.88,17.73,0,0,0,8.86-8.87,8.86v8.87c8.87,0,8.87,0,17.75,8.86,0,8.87-8.88,17.73-8.88,26.6,8.88,17.73,26.63,8.86,44.38,17.73,8.88,0,35.49,35.45,35.49,44.32l-8.88,8.86c8.88,8.87,8.88,8.87,8.88,17.73,8.88,8.87,8.88,26.59,17.75,35.46,8.88,17.73,26.63,17.73,35.5,26.59s8.88,26.59,17.75,35.46h17.74c17.75,8.87,26.63,17.73,35.5,26.6,8.88,0,8.88,0,17.75-8.87h8.88c17.74-8.86,26.61-26.6,53.24-17.73v8.87c0,17.73-35.5,35.45-44.38,53.18-8.86,8.86-8.86,26.59-17.74,35.46s-17.75,17.73-35.5,26.59c0,8.87-8.87,8.87-17.75,17.73V1436l-26.61,26.59c-8.88,17.73-8.88,53.19-35.5,53.19-8.88-8.87-17.75-35.46-26.63-44.32h-8.88c-8.86,17.73,26.63,44.32,26.63,53.18s0,8.86,8.88,17.73c0,8.86,0,17.73,8.87,26.6s17.75,8.86,26.63,26.59c0,17.72,8.87,35.45,17.74,53.18v8.87c8.87,8.86,17.75,17.73,26.62,17.73,8.88,17.72,17.75,35.45,17.75,53.18l17.75,17.73c-8.87,8.87-8.87,17.73-8.87,35.46v44.32c0,8.86-8.88,8.86-8.88,17.73v26.6c-8.87,17.72-8.87,35.45-17.75,53.18,0,17.73-26.62,53.19-8.87,70.91,0,8.87,17.75,8.87,17.75,8.87,8.87,0,35.5,35.46,44.36,44.32,0,17.73-8.86,26.59-8.86,35.46s8.86,35.45,17.74,44.32c0,8.87,8.87,8.87,8.87,8.87,8.88,0,26.63-8.87,26.63,0,8.87,0,0,8.86,0,8.86-8.88,17.73-53.24,17.73-79.87,17.73-8.87-8.87-17.75,0-26.62,0s-8.88-8.87-17.75-8.87c-8.87,8.87-26.62,8.87-35.49,8.87H2594.14c-8.88,0-8.88,8.86-17.75,8.86s-17.75-8.86-17.75-8.86c-8.88,0-26.63,8.86-35.49,8.86l-8.88-8.86c-8.87,0-17.75,0-26.62,8.86-17.75,0-35.5-8.86-44.38-8.86s-35.49,8.86-44.36,8.86c-26.63,0-44.38-8.86-62.12-8.86s-26.62,8.86-35.5,8.86H2177.06c-35.5,0-97.62,0-142-8.86-17.74,0-17.74,8.86-35.49,8.86H1511.5c-8.87,8.86-17.75,0-26.62,0-35.5,0-79.87,8.86-124.24,0h-44.37c-17.75,8.86-53.25,0-62.12-8.86,0-8.87,0-17.73,8.87-17.73h17.75c8.88-8.86,8.88-17.73,17.75-26.6,17.75-8.86,35.5-8.86,44.38-17.73h0c8.86-8.86,8.86-17.72,17.74-26.59s8.88-17.72,17.75-26.59h0c8.87-17.73-8.87-26.59-8.87-35.46v-124.1c-8.88-26.59-17.76-35.45-8.88-70.92v-17.72c8.88-8.87,8.88-8.87,8.88-17.73V1764c8.87,0,8.87-8.86,8.87-17.73,8.87-8.87,8.87-17.73,8.87-26.6,8.88-8.86,8.88-17.72,17.75-26.59v-35.45c8.88,0,8.88-8.87,17.75-17.73v-17.73c0-8.87,8.87-17.73,17.75-26.59V1569c8.87-8.87,8.87-26.6,17.75-35.47v-17.72c8.87,0,8.87,0,17.74-8.87,0-8.86,0-17.72,8.88-26.59s35.49,8.87,35.49,8.87c0,17.72-26.62,44.31-8.87,62h0c17.75-17.73,8.87-62,44.37-70.91,17.75,8.87,0,26.59,8.87,44.32,0,8.86,8.88,26.59,0,35.46,0,8.87-8.87,17.73-8.87,26.59,0,17.73,8.87,17.73,8.87,35.46,0,0,0,8.86-8.87,8.86h-17.75c0,8.87-8.87,8.87-8.87,17.73-8.88,0-8.88,8.87-17.75,8.87,0,8.86-8.87,17.73-8.87,17.73-17.75,8.86-26.63,8.86-35.5,17.72,0,17.73,17.75,17.73,17.75,26.59-8.88,8.87-17.75,17.73-26.62,17.73-26.63,17.74-53.25,35.46-71,53.19h0c8.88,17.73,35.5,26.59,62.12,35.46,8.88,0,17.75,17.73,35.5,17.73,8.87,0,0-8.87,0-8.87-8.88-8.86-17.75-8.86-26.62-17.73-17.75-8.86-44.37-8.86-44.37-26.59,8.87-8.86,26.62-26.59,44.37-26.59,0,0,8.87,0,17.74-8.86l8.88-8.87c8.87-8.87,26.62-8.87,26.62-17.73v-8.87c0-8.86-17.75-17.72-8.87-35.45,17.74-8.86,26.62-26.59,53.24-35.46,8.87-8.86,17.75-8.86,26.62-17.73,0-8.86-8.87-17.73-8.87-26.59,0,0,8.87-8.86,8.87-17.73-8.87-35.46,0-79.78-8.87-124.1,0-8.86,8.87-17.73,0-35.46,0-17.72,8.87-44.32,0-53.18h0c-17.75,17.73-8.88,44.32-8.88,70.91,0,17.73,0,26.6-8.87,26.6-17.75-8.87-17.75-26.6-26.62-35.46h-8.88c0,17.73,8.88,17.73,0,26.59v8.87c-44.37,8.86-35.49-44.33-44.37-70.92-17.74-17.73-44.37-8.86-71-17.73l-8.87-8.86h-17.75l-17.75-17.73H1342.9c-8.88-8.87-26.63-26.59-26.63-35.46-17.75-17.72-8.87-53.19,8.88-62,8.87-8.87,8.87-8.87,17.75-8.87,8.86-8.86,8.86-17.72,17.74-17.72q0-13.31,26.62-26.6l8.88-8.86c8.87,0,26.62,0,35.49-8.86,26.63-17.73,44.37-44.33,71-53.19,17.74-8.87,53.24-8.87,71-17.73,0-17.73-8.88-17.73-17.75-26.59-8.87-17.73-8.87-26.6-8.87-35.46l-26.63-26.59c0-17.73,8.88-44.33,8.88-62.06,0-8.86-8.88-17.72,0-35.45,0-17.73,26.62-44.32,44.37-53.19h17.75c0-8.86,8.87-8.86,17.74-8.86Zm949.53,540.73v17.72h8.88v-8.86h0c0-8.86-8.88-8.86-8.88-8.86Zm8.88,62s0,8.86-8.88,8.86v17.73c0,8.86,8.88,8.86,8.88,26.59s-8.88,44.33-8.88,70.92V1631h8.88c17.74-8.86,17.74-70.91,17.74-97.51,0-8.86,8.88-17.72,0-26.59,0,0,0-8.86-8.87-8.86,0-8.86,0-26.59-8.87-26.59Zm-559.07,26.59c-35.5,17.73-106.49,0-150.86,8.86-8.87,0-26.62-8.86-35.5,0,0,0-8.87,17.73-8.87,26.59V1631c0,8.87,8.87,8.87,8.87,17.73s-17.74,8.87-8.87,26.6c0,8.86,8.87,17.72,8.87,26.59-8.87,8.86-8.87,17.72-8.87,26.59V1764c8.87,26.59,0,62,0,97.51v44.32c0,8.86,8.87,17.73,8.87,26.59-8.87,17.74-8.87,35.46,0,44.33h26.63c26.62,8.86,71,8.86,97.61,0H1973c26.63,8.86,44.38,0,71,0,8.88,0,17.75,8.86,26.63,8.86,8.87-8.86,17.75-8.86,26.61-8.86s8.88,8.86,17.75,0h230.74v-8.87c8.86-8.86,0-17.72,0-26.59V1764c0-26.6,0-44.33,8.86-62-8.86-17.73-8.86-17.73-8.86-26.59v-88.65c-8.88-8.86,0-70.91-8.88-79.78s-79.87,0-97.62-8.86c-35.49,0-71,0-97.61,8.86-44.38,0-88.74-8.86-133.11-8.86Zm630.06,168.42h0c-8.88,26.59,0,79.78,8.87,88.65h8.87c8.88-17.74,0-26.6,0-35.47V1702c-8.87-8.87-8.87-26.59-8.87-35.46ZM1591.37,930.76c-8.88,0-26.63,0-35.5,8.86v8.87c17.75,8.86,17.75-8.87,44.37,8.86h0c-8.87,8.86-17.75,8.86-17.75,17.73s8.88,8.86,17.75,17.73c-8.87,8.87-17.75,8.87-26.62,8.87s-8.88,0-8.88-8.87,8.88-8.87,0-17.73h-8.87s-17.75,26.6-8.87,44.32c0,8.87,8.87,8.87,17.74,17.73,8.88,17.73,8.88,44.32,26.63,53.19,26.62,17.73,26.62,0,44.37,0,17.75,8.86,8.87,26.59,8.87,44.32h0c26.63,0,17.75-26.59,26.63-44.32,0-8.87,17.74-8.87,26.61-17.73,0-8.87-8.87-35.46-8.87-35.46l-26.62-26.59c-8.87,0-17.75-8.86-17.75-17.73-8.87-8.87-8.87-17.73-8.87-26.6l-35.5-35.45ZM2532,966.21s-8.86,0-8.86,8.87v8.86c0,8.87-8.88,17.74-8.88,26.6-8.87,35.45-35.5,35.45-8.87,70.91,8.87,0,17.75,17.73,35.49,17.73,8.87,0,8.87-8.86,17.75-17.73,17.75,0,26.62,8.87,44.38,0v-8.86h-26.63v-8.87c0-8.86,8.87-8.86,8.87-8.86,8.88-8.87,8.88-17.73,8.88-26.59,8.88-8.87,44.37-44.33,17.74-53.19s-26.62,17.73-44.36,8.86c-17.76,0-26.63-17.73-35.51-17.73Zm-550.18,115.24h0c0,8.87,8.87,17.73,17.75,8.87h0c0-8.87-8.88-8.87-8.88-8.87Zm159.73,8.87h0c-8.88,0-8.88,8.86-8.88,8.86h8.88c8.87,8.87,17.75,0,17.75-8.86Zm346.09,0-8.88,8.86c8.88,17.73,53.24,44.32,62.12,62,0,17.73-35.49,26.6-35.49,44.32,8.87,17.73,26.61,26.6,35.49,44.32l26.63,26.6h0c0-26.6-44.37-62-35.51-79.78,0-8.86,8.88-8.86,17.75-17.73,17.76,0,8.88,26.59,35.5,26.59,8.88-8.86,44.37-62,35.49-79.78-8.87,0-8.87,0-8.87-8.86,0,0,0,8.86-8.86,8.86v17.73c0,8.87-8.88,8.87-8.88,8.87-8.88,17.73,0,26.59-17.75,26.59s-17.75-17.73-26.63-35.46-26.61-17.73-44.36-35.45c-8.88,0-8.88-17.73-17.75-17.73Zm-434.83,0h0v8.86h8.87v-8.86h-8.87Zm-319.47,8.86c-8.87,0-8.87,8.87-17.75,17.73-8.87,17.73-26.62,26.59-53.24,35.46h-17.75s-8.87,8.86-17.75,8.86c-8.87-8.86-17.75-26.59-35.49-26.59-8.88,17.73,17.74,26.59,26.62,35.46h26.62l8.88,8.86c26.62-8.86,35.49-17.73,44.36-26.59s17.75-8.87,17.75-8.87c8.88-8.86,8.88-17.73,17.75-26.59,0-8.86,8.88-8.86,8.88-17.73Zm35.49,8.87c-8.86,8.86-8.86,17.72-8.86,35.45V1179s0,8.87,8.86,8.87v17.72c0,17.73,17.75,35.46,26.63,44.32,0,8.87,0,26.6,17.75,26.6h0v-8.87c8.87-8.86,0-17.73,0-26.59,0-17.73,17.75-26.59,17.75-35.46v-8.86h-8.88c-8.87,8.86-8.87,17.73-17.74,26.59h-8.88c-8.88-17.73,8.88-35.45,0-53.18h0c-8.88,8.86-8.88,17.73-8.88,26.59-8.87,0-8.87-8.86-8.87-8.86v-35.46s-8.88-8.87-8.88-17.73c8.88-8.87,8.88-17.73,8.88-26.59Zm807.55,8.86h-8.87v17.73h17.74v-17.73ZM1547,1152.37h-8.88c-8.87,35.46-17.75,70.91-35.49,106.37v26.6h8.87c8.87-8.87,8.87-26.6,8.87-35.47,8.88-17.72,26.63-35.45,26.63-53.18V1179c8.87-8.86,8.87-17.73,8.87-26.59Zm630.06,8.86c-26.63,17.73-79.88-8.86-106.49,8.87,0,8.86-8.88,26.59,0,35.45h106.49c17.74,0,17.74,8.87,35.49,0,0-17.72,0-35.45-8.87-35.45-8.88-8.87-17.75-8.87-26.62-8.87Zm-177.48,0c-8.88,8.87-8.88,35.46,0,44.32,26.61,8.87,44.36-44.32,0-44.32ZM1626.86,1179c-8.87,8.87,0,17.73,0,26.59v17.73h8.88c8.87-17.73,0-35.45-8.88-44.32Zm-53.24,8.87c-8.88,8.86-17.75,26.59-8.88,44.32h8.88c0-8.87,8.87-35.46,0-44.32Zm825.29,26.59h0c0,26.59,8.87,44.32,0,53.18s-8.88,8.87-17.75,8.87v8.87c17.75,0,26.62,8.86,35.5,0,0-8.87-8.88-8.87-8.88-17.74,0-17.73,8.88-35.45,0-53.18h-8.87Zm-967.28,0s0,8.86-8.87,8.86h0c8.87,8.87,35.5,17.73,44.37,8.87h0c0-8.87-17.75-17.73-35.5-17.73Zm701,17.73c-17.75,0-71-17.73-62.11,17.72v17.73c17.75,17.74,79.86,0,97.61,0,8.88,0,26.62,8.87,35.5,8.87,8.87-8.87,8.87-35.46,0-44.32-17.75-8.87-35.5,0-53.25,0Zm-133.1,0c-17.75,8.86-8.88,35.45,0,44.32q26.63,0,26.61-26.6v-17.72ZM1600.24,1241c-17.75,8.86-35.5,17.73-44.37,35.46-17.75,8.87-17.75,35.46-35.5,35.46-17.74-8.86-26.62-8.86-44.37-17.73-17.74,0-44.37-17.73-62.11-17.73h-17.75c-8.88-8.87-8.88-8.87-17.75-8.87s-44.37,17.74-44.37,35.47c8.88,17.72,35.5,35.45,62.12,44.31,17.75,0,26.62,0,44.37,8.87,8.87,0,17.75,0,17.75,8.86h71c8.87,0,17.75-8.86,26.62-8.86,8.87-8.87,8.87-17.73,17.75-17.73,8.87-8.86,26.62,0,35.49-8.86h0c0-8.87,0-8.87-8.87-17.73,0-8.86,0-17.73,8.87-26.59,8.88,0,17.75,8.86,26.63,0h0c0-8.87-8.88-8.87-17.75-17.74h0v-8.86h17.75c0-8.87-17.75-17.73-35.5-17.73Zm1100.38,0c-17.74,17.73-26.61,35.46-44.37,53.19,0,8.87-8.87,8.87-8.87,17.73v62l26.63,26.59c17.73-8.86,8.87-26.59,17.73-35.46,8.88-17.73,26.63-8.86,35.51-17.73,0,0,0-8.86,8.87-17.72,0-8.87,0-8.87,8.88-17.73,8.87-26.59,0-53.19-26.63-62.06-8.87,0-8.87,0-17.75-8.86Zm-860.78,17.73s0,8.86-8.87,8.86c0,8.87,8.87,17.74,8.87,26.6-8.87,8.87-26.62,8.87-44.37,17.73h-17.75c-8.88,0-8.88,0-17.74,8.86-8.88,0-17.75,8.87-26.63,8.87H1715.6c-8.87,8.86-44.36,44.32-53.24,44.32,0,17.73-17.75,44.32-8.87,62h8.87c8.88-8.87,0-17.73,8.88-17.73h0c8.87,8.86,8.87,8.86,8.87,17.73h0c8.87-8.87,8.87-17.73,17.74-17.73h8.88c8.87,0,8.87-8.86,17.75,0l8.87,8.86h8.88c0-17.72-8.88-35.45,0-44.32s35.49-17.73,44.36-17.73c8.88,8.87,8.88,8.87,17.76,8.87,0,0,8.87-8.87,26.62-8.87,8.87,0,17.75,8.87,26.62,8.87,17.75-8.87,53.24-17.73,62.12-26.6,8.87-26.59-8.88-79.78-26.62-88.64Zm399.33,26.6c-8.87,17.73-8.87,26.59,0,35.45-8.87,8.87-8.87,8.87-8.87,17.73,0,0,0,8.86,8.87,8.86h8.88c8.87-17.72,0-44.31-8.88-62Zm355,0c-8.88,8.86-17.75,17.73-35.5,26.59h-17.75c-8.88,0-26.62,8.86-35.49,17.73,0,8.86,0,26.59,8.87,26.59,0,8.86,8.88,8.86,8.88,8.86,17.74,8.87,35.49,17.73,62.11,17.73,8.88-17.73,8.88-35.46,8.88-44.32,8.88,0,17.74-8.86,26.61-8.86v-8.87h0c-17.73,0-35.49,8.87-35.49,0h0c0-8.86,8.88-17.72,17.76-26.59h0l-8.88-8.86Zm-150.87,8.86c-8.86,8.87,8.88,17.73,0,26.59h-17.74c0,8.87,8.88,8.87,8.88,17.73s-8.88,8.86-8.88,17.73H2461c8.88-8.87,0-26.59,0-44.32l8.88-8.86h0c-8.88-8.87-17.75-8.87-26.63-8.87Zm-425.94,8.87c-8.88,8.86-17.75,8.86-26.63,17.72,0,17.73,8.88,35.46,26.63,26.59,17.74,0,17.74-44.31,0-44.31Zm71,0c-8.88,0-8.88,8.86-8.88,8.86-8.87,0-8.87,17.73-8.87,26.59,8.87,8.86,26.61,8.86,35.49,8.86,26.62,0,79.87,8.87,97.62,0,0-17.72,0-35.45-8.88-35.45-35.49,0-71-8.86-106.48-8.86Zm683.3,17.72c-17.75,8.87-17.75,8.87-26.62,26.59v35.46c8.87,8.87,17.75,17.73,35.49,17.73s44.37-17.73,44.37-44.32h0c-8.87-8.87-17.75-8.87-26.62-8.87v-17.72h-8.88l-8.87-8.87Zm-1144.76,35.46c-8.87,0-8.87,0-8.87,8.86-8.88,8.87,8.87,26.6,8.87,53.19-8.87,0-8.87,8.86-8.87,8.86V1631c8.87,8.87,26.62,17.73,26.62,26.6,8.88,17.73-8.87,53.18,8.88,70.91,8.87,0,26.62,0,35.49-8.87,17.75,0,62.12,0,71,8.87,0,8.86,0,26.6,8.86,26.6v-8.87c17.75-44.32-44.36-35.46-79.86-35.46h-26.62v-62c-8.87-17.73-17.75-8.86-26.62-17.73V1542.4c0-8.87-17.75-44.32,0-53.18h17.75c8.87,0,0,8.86,8.87,26.59,0,8.86,8.88,17.72,8.88,26.59h8.87v-44.32c0-8.86,8.87-8.86,8.87-17.73h0l-26.62-17.73c-8.87,0-17.75,8.87-26.62,8.87h0c-8.88-26.6,8.87-97.51-8.88-115.24Zm825.29,26.59c-17.74,8.87-35.49,17.73-35.49,35.46,17.75-8.86,26.61-17.73,44.36-17.73,0,0,8.88,8.87,17.75,0h0c0-8.86-17.75-17.73-26.62-17.73Zm44.37,8.87s-8.87,0-8.87,8.86h8.87c8.88,0,8.88-8.86,8.88-8.86h-8.88Zm213,8.86s0,8.87-8.88,17.73h-17.74c0,26.59,35.49,53.19,53.24,44.32H2745c0-8.86-8.88-17.73,0-17.73,0-8.86,8.87-8.86,8.87-8.86v-8.87H2745c-8.88,0-8.88,8.87-26.63,8.87-8.87-8.87,8.88-17.73,0-35.46h-8.87Zm-79.87,0-8.88,8.87h0l8.88,8.86h8.88v-17.73h-8.88Zm-257.35,0c-8.87,8.87-17.75,0-26.61,0-17.76,0-35.5,8.87-44.38,8.87-17.75,0-35.49-8.87-44.37-8.87-8.87,8.87-8.87,8.87-17.75,8.87h-79.86c-26.63-8.87-44.38,8.86-71,0-35.5,0-79.87-8.87-124.24,0H1831c-17.75,8.86-53.25-8.87-53.25,8.86,8.87,17.73,35.5,53.19,44.37,53.19,17.75,8.86,26.63,0,44.37,0h177.48c8.88,0,26.63,8.86,35.5,0h53.24c8.88,0,26.63-8.87,35.5,0h17.75c8.87,8.86,35.5,0,53.24,0h106.5c8.86-8.87,8.86-17.73,17.74-26.6,8.87-17.73,17.75-17.73,17.75-35.45h0c0-8.87-8.88-8.87-8.88-8.87Zm213,8.87V1436c0,17.73,8.88,35.46,8.88,44.32,8.88,8.87,8.88,35.46,8.88,44.32v17.73c0,8.86,8.86,8.86,8.86,8.86,0,8.87,8.87,17.74,8.87,26.6,8.88,0,8.88,8.86,17.76,8.86v17.73c8.87,8.86,26.62,8.86,35.5,17.73l8.87,8.86c26.62,8.87,35.49,0,53.24,17.73h26.63v-8.86h0c-17.75,0-26.63-17.73-44.38-17.73-8.87-8.87-35.49,0-35.49-17.73l-8.87-8.86c0-8.87-8.88-8.87-8.88-17.73h-8.88c-8.87,0-8.87-8.86-8.87-8.86-8.87,0-8.87,0-8.87-8.87-8.88-17.73-17.76-26.6-17.76-35.46v-26.59c-8.87-17.73-8.87-26.59-17.73-35.46v-17.73c0-8.86-8.88-8.86-8.88-17.73v-8.86c0-8.86,0-8.86-8.88-8.86Zm-79.86,8.86h-8.88v8.86s8.88,8.87,17.75,8.87,8.88,0,8.88-8.87,0-8.86-8.88-8.86Zm133.11,53.19s-8.88,0-8.88,8.86c8.88,8.87,8.88,8.87,8.88,17.73,8.87,0,17.74-8.86,17.74-8.86v-17.73Zm-931.78,8.86h-8.88c0,8.87,17.75,8.87,17.75,17.73,8.88,17.73,0,26.59,8.88,35.45,8.87,0,8.87,0,8.87-8.86v-17.73c0-26.59,8.88-26.59-26.62-26.59Zm62.11,0c0,8.87-8.86,26.59-8.86,44.32,0,0,8.86,8.86,8.86,17.73-8.86,0-8.86,8.86-8.86,17.73s8.86,53.18,17.74,53.18h0c8.87-8.86,0-17.72,8.87-26.59,0-26.59,0-97.5-8.87-106.37Zm727.68,8.87c-8.87,8.86-17.75,8.86-17.75,8.86v8.86c0,8.87,26.63,8.87,35.5,0h0c0-8.86-8.87-17.72-17.75-17.72ZM2674,1533.53h-8.88c0,8.87-8.88,17.73-8.88,35.47h8.88c8.88,0,26.61-8.87,26.61-17.74-8.86-8.86-8.86-8.86-8.86-17.73Zm-195.24,44.33h-8.87c0,17.73,35.5,26.59,35.5,8.86v-8.86Zm79.87,79.78c-17.75,17.73-8.88,53.18-17.75,79.77v17.74c0,17.72-8.88,26.59-8.88,44.32-8.86,8.86-8.86,26.59-8.86,35.45-8.88,17.74-17.75,44.33-26.63,62.06,0,8.86-8.87,8.86-8.87,17.72-17.75,26.6-35.5,17.73-71,26.6-17.75,0-26.63-8.87-35.5,0v44.32c0,8.86,8.87,8.86,17.75,17.73,0,8.86,8.87,17.73,8.87,17.73,8.88,17.73,26.63,26.59,26.63,35.46V2092c8.86,17.73,8.86,17.73,0,35.46h8.86c0,8.87,8.88,8.87,8.88,8.87,17.75,0,35.5,0,44.37-8.87,0-17.73,0-26.6-8.87-35.46,8.87,0,8.87-8.86,8.87-8.86v-44.32c0-8.87-8.87-17.73-8.87-17.73v-26.6c0-8.86-8.88-53.18-8.88-62,26.63,0,26.63-17.73,35.5-35.45,0-8.87,8.88-8.87,8.88-17.73,8.86-8.86,0-26.59,8.86-35.46,0-8.87,8.88-17.73,8.88-17.73v-26.59c8.87,0,8.87-8.87,17.75-17.73v-53.19c8.88,0,17.75-62,8.88-70.91ZM1768.84,1764c-8.86,0-8.86,8.86-8.86,8.86v62.05c8.86,0,8.86,0,8.86,8.87,8.88-17.73,8.88-79.78,0-79.78Zm878.54,8.86c-8.87,8.87,0,26.6,0,44.32v44.33c-8.87,8.87,0,17.73-8.87,26.59v26.59c-8.88,8.87-8.88,8.87-8.88,17.73v17.74l-8.88,8.86v70.91c0,8.87,8.88,17.73,8.88,26.6v26.59c8.88,8.86,0,17.72,0,26.59h26.62V2065.4c-8.87,0-8.87-8.86-8.87-17.73s8.87-8.86,17.75-17.73c0-8.86,0-17.73-8.88-26.59,8.88-8.87,8.88-17.73,8.88-26.59V1941.3c8.88-26.6,17.75-44.32,17.75-62v-79.78c0-8.87-17.75-26.6-35.5-26.6Zm62.12,8.87c0,8.86,0,8.86-8.88,8.86h0c8.88,8.87,26.63,17.73,35.5,17.73v-8.86c-8.87,0-17.75-8.87-26.62-17.73Zm-1153.63,62-8.87,8.87c0,8.86,8.87,17.73,0,35.45,0,8.87-8.88,17.73-8.88,26.59,8.88,17.73,26.62,17.73,44.37,17.73,8.88-8.86,35.5-8.86,53.25-8.86s53.24,8.86,71,0h0c0-17.73-8.88-17.73,0-35.46,0-8.86,8.87-26.59,0-35.45s-26.62,0-44.37,0c0-8.87-8.87-8.87-17.75-8.87s-17.75,8.87-26.62,8.87c-17.75-8.87-35.5-8.87-62.12-8.87Zm-159.73,8.87s-8.88,0-17.75,8.86h0c17.75,8.87,17.75,0,26.62,0s8.88,8.87,17.75,8.87h26.62c17.75,8.86,44.37,17.72,62.12,8.86h8.87c-8.87-8.86-26.62-8.86-35.49-17.73h-17.75c-17.75,0-35.5-8.86-71-8.86Zm381.58,53.18h-8.88c0,8.86,0,17.73,8.88,17.73h0c8.87-8.87,8.87-8.87,0-17.73Zm-8.88,44.33V1959c0,8.86,0,17.73,8.88,26.59h8.87c0-8.86,0-26.59-8.87-35.45ZM1582.49,1959c-8.87,8.86-53.24-8.86-62.12,8.86-17.74,0,0,26.59-8.87,44.32,0,26.6-8.87,124.11,8.87,133h44.37l8.88-8.86c26.62,0,53.24,8.86,79.87,8.86h17.75c8.87-8.86,8.87-8.86,17.74-8.86,17.75,0,35.5,8.86,53.25,0,0-17.74,8.87-88.65,0-106.38,0-17.73,8.87-17.73,0-35.46,0-8.86,0-26.59-8.88-26.59,0-8.86-26.62,0-35.5-8.86Zm1118.13,17.73c-17.74,8.86-17.74,17.72-17.74,35.45,8.86,8.87,0,8.87,8.86,17.73,0,0,8.88,8.87,26.63,8.87l8.88-8.87c17.75,8.87,26.62,8.87,44.37,8.87,8.87,8.86,17.74,0,26.62,0h26.62v-8.87c0-8.86,0-8.86-8.87-8.86h-26.63s-8.87-8.87-17.74-8.87h-17.75c-17.75-8.86-17.75-26.59-26.62-35.45Zm-443.7,26.59c-17.75,8.86-53.24,8.86-79.86,8.86H2026.19c-8.86-8.86-17.74,0-26.61,0H1866.46c-26.62,0-71-8.86-71,26.6h0c35.5,0,71,8.86,106.49,8.86h186.36c8.86-8.86,8.86,0,17.74,0s17.75-8.86,26.62,0H2265.8c17.74,0,44.37-8.86,62.11,0,8.88,0,8.88,8.87,17.76,8.87,0,0,0-8.87,8.86-8.87h26.63v-8.86c-8.88-26.6-35.49-35.46-71-35.46-8.88,8.86-8.88,8.86-17.75,8.86s-26.62-8.86-35.5-8.86ZM1387.26,2092c-8.87,0-8.87,8.86-8.87,8.86h8.87c8.88-8.86,8.88-8.86,0-8.86Zm1153.63,8.86H2532c-17.74,17.73,0,35.47,8.88,35.47h8.87l8.88-8.87c8.88,8.87,8.88,8.87,17.75,8.87,0,0,0-8.87,8.87-8.87s8.88,8.87,17.76,8.87l8.86-8.87c0-26.6-44.36-17.73-71-26.6Zm204.11,8.87c-8.88,0-17.75,8.86-17.75,17.73v8.87c17.75,0,35.5,0,44.37-8.87h8.87c-8.87-17.73-26.62-17.73-35.49-17.73Zm-1340,8.86c-8.87,8.87-26.62,8.87-26.62,17.74v8.86h17.75c17.75,0,26.62,0,35.49-8.86h0c-8.87-8.87-17.74-17.74-26.62-17.74Zm-79.86,8.87c0,8.87-8.88,8.87-8.88,8.87h0v8.86h26.63v-8.86h0c-8.88,0-8.88,0-17.75-8.87Z" transform="translate(-393.37)"/><path class="cls-2" d="M1902,3953.51c17.75,0,26.62,8.86,44.37,17.73,8.87,8.86,26.62,35.46,26.62,53.19-8.87,8.86-8.87,8.86-8.87,17.73v17.72c0,17.73-17.75,35.46-8.88,53.19,0,17.73,35.5,17.73,53.25,35.46,8.88,8.86,17.74,8.86,17.74,17.73,0,17.72,8.88,53.18-8.86,62.05-17.75,17.73-62.13,17.73-88.75,8.86-8.87,0-17.75-8.86-35.49-8.86H1831c-8.88,8.86-17.75,8.86-26.62,17.73-8.88,0-26.63-8.87-35.51,0-17.74,0-44.36,8.86-62.11,17.72-17.75-8.86-53.24-17.72-62.12-26.59,0-8.86,0-8.86,8.88-17.73,44.36-44.32,159.73-53.18,186.35-124.1v-17.73c-44.37,0-115.36-17.73-97.61-62.05,0-8.86,8.87-17.73,8.87-26.6,26.62-8.86,53.25-17.72,79.87-35.45Z" transform="translate(-393.37)"/><path class="cls-2" d="M3002.35,3829.41l8.87-8.87c8.86,8.87,44.36,26.6,44.36,35.46,8.88,17.73,0,62.05,0,70.92,17.76,26.59,53.26,17.73,62.12,26.59,26.63,53.19-35.49,53.19-62.12,62-17.74,17.73-17.74,44.32-17.74,53.19-8.88,8.86-8.88,17.72-17.76,26.59,8.88,8.87,8.88,8.87,8.88,17.73,17.75,17.73,35.5,26.6,53.25,44.32v8.87c8.87,8.86,8.87,17.72,17.75,17.72,8.88,8.87,8.88,35.46,26.62,44.33h17.75c17.75,17.73,44.37,35.45,62.11,53.18h17.75c8.88,8.87,17.75,8.87,26.63,17.73s26.61,8.87,35.49,26.6v8.86c-8.88,17.73-44.37,8.86-53.24,8.86l-8.88,8.87c-8.87,0-62.11-8.87-62.11-8.87-26.63-17.72-53.24-44.32-71-62.05-8.87-8.86-17.74-35.45-26.62-44.32s-17.75-8.86-26.62-17.73v-17.73c0-8.86-8.88-8.86-17.76-17.73l-8.86-8.86c-26.63-8.86-35.5,26.59-44.37,44.32-17.76,26.6-44.37,53.19-71,88.65H2887c-17.75,8.86-35.49,17.73-53.24,17.73-8.88,0-8.88,0-8.88-8.87,26.63-35.46,53.24-62.05,88.74-97.51v-17.73c0-8.86,8.88-17.73,17.76-26.59s26.61-62.05,26.61-70.91c-8.88,0-8.88-8.87-8.88-8.87-17.73,0-26.61,8.87-44.36,8.87-17.75-17.74-44.38-35.46-35.5-62.05,0-17.73,26.62-17.73,35.5-26.6,17.75-8.86,17.75-17.73,35.49-26.6s53.25-17.72,71-53.18c0-17.73-8.87-79.78-17.75-97.51l8.88-8.86Z" transform="translate(-393.37)"/><path class="cls-2" d="M3339.56,4077.61c8.87-17.73,17.75-44.32,35.49-53.18,8.87,8.86,8.87,8.86,17.75,8.86v26.59s0,8.87-8.88,17.73l8.88,8.86c0,17.74-8.88,26.6-8.88,44.33v17.73c0,8.86,0,17.73-8.87,17.73,0,8.86,8.87,8.86,8.87,17.72-8.87,0-17.73,8.87-26.61,8.87s-8.88-8.87-17.75-8.87c0-8.86-8.87-8.86-17.75-8.86v-26.59c0-35.46,17.75-44.32,17.75-70.92Z" transform="translate(-393.37)"/><path class="cls-2" d="M3437.18,3847.14c8.86-8.87,17.73-26.6,26.61-35.46h0c26.63,8.86,44.38,79.78,44.38,97.51,0,26.59-26.63,53.18-44.38,44.32-8.88-8.86-35.49-53.19-35.49-70.92,0-8.86,8.88-17.72,8.88-35.45Z" transform="translate(-393.37)"/><path class="cls-2" d="M3525.92,3794c0-17.73,8.86-26.59,17.74-26.59,44.37,0,53.25,44.32,71,44.32,8.87,0,26.62-17.73,26.62-26.59v-8.87h0c17.75-8.86,26.63-35.45,35.5-62v-8.86c8.88-8.87,26.62-26.59,35.49-26.59,8.88,8.86,26.63,8.86,35.5,17.72,35.49,26.6,44.37,70.92,8.88,115.24-17.75,8.86-53.25,17.73-71,26.59-17.75,0-35.5,17.73-44.38,26.6h-17.75c-8.87,8.86-35.49,35.45-53.24,26.59,0-17.73-8.87-8.87-26.62-17.73-8.88-17.73-8.88-53.19-17.74-79.78Z" transform="translate(-393.37)"/><path class="cls-2" d="M3472.67,4006.7c8.87-17.74,44.37-35.46,62.11-44.33,53.25-26.59,115.37-62,177.48-53.18,0,0,8.88,0,17.76-8.87,8.87,8.87,17.74,8.87,26.62,17.73,8.88,0,8.88-8.86,17.75-8.86,17.74,0,8.86,17.73,17.74,17.73,8.88,8.86,17.75,8.86,26.62,8.86,8.88,8.87,8.88,53.18,8.88,62-8.88,8.87-8.88,17.73-17.75,26.6s-17.75,8.86-35.49,17.73l-17.75,17.72h-17.75c-8.87,0-8.87,0-17.75,8.87-17.75,0-26.61-8.87-35.49,0,0,8.86-8.88,17.72-8.88,26.59-8.87,8.87-17.75,8.87-26.62,26.6,0,17.73-8.88,26.59-8.88,35.45s-8.87,8.87-8.87,8.87c0,17.72,0,35.45,8.87,53.18,44.38,17.73,79.87-8.86,115.37-8.86,8.88,8.86,17.75,8.86,26.61,8.86,0,0,8.88-8.86,8.88,0,8.88,0,0,8.87,8.88,8.87,17.74,8.86,26.62,8.86,26.62,26.59-8.88,26.59-35.5,44.32-53.24,35.46-17.75,0-26.63-8.87-44.37-8.87-26.63-8.86-62.12,0-79.87,8.87-8.88,8.86-17.75,35.46-26.63,53.18-8.87,35.46-17.74,70.92-35.49,97.51,0,8.86-8.87,8.86-8.87,8.86-8.88,8.87-8.88,26.6-17.75,26.6-26.63,26.59-71-8.87-71-44.32h0c17.75,0,17.75-8.87,35.5,0,26.61-26.59,79.86-88.65,53.24-133-17.75-8.86-17.75,0-26.63,0s-8.87,0-17.75-8.86c-26.61,0-53.24,17.73-71,26.59-8.88-8.86-17.75-8.86-26.61-8.86,0,0-8.88,8.86-17.76,8.86,0,0-8.87,0-8.87-8.86h-8.87l8.87-8.87c35.49-8.86,62.12-35.46,97.62-44.32,17.75,0,53.24,0,71-8.86,8.87-8.87,8.87-26.6,8.87-35.46,0-17.73-17.75-44.32-17.75-62.05s44.37-26.59,35.5-53.19-44.37-17.73-53.25-53.18h8.88s8.87-8.87,17.75-8.87H3588c17.75,0,35.49-17.73,44.37-17.73,26.62,8.87,44.37,17.73,62.13,26.6,17.73,0,53.23-44.33,44.36-70.92-26.63-26.59-44.36-8.87-71-8.87-17.75,0-35.5,0-62.12,8.87,0,0-8.87,0-17.75,8.86l-8.87-8.86c-26.63,17.72-53.24,26.59-79.87,35.46h-8.87c-8.88,0-8.88,0-17.75,8.86v-8.86Z" transform="translate(-393.37)"/><path class="cls-2" d="M677.34,3749.63c0,8.87,8.87,26.59,8.87,35.46,0,17.72-17.74,53.18-44.37,44.32C615.22,3794,588.6,3758.5,633,3723c17.75,0,26.62,8.86,44.37,26.59Z" transform="translate(-393.37)"/><path class="cls-2" d="M1067.8,3820.54c8.87,35.46-26.62,88.65-79.87,88.65-8.87-8.87-17.75-8.87-17.75-8.87-26.62,0-26.62,17.73-44.36,8.87-8.88,0-8.88,8.86-8.88,8.86-17.75,8.87-35.5,8.87-44.37,17.73-44.37,26.59-71,53.18-79.87,97.51-8.87,8.87-17.75,17.73-17.75,26.59h8.88c35.49-8.86,53.24-8.86,79.86,0,35.5-17.72,8.88-88.64,62.13-88.64,35.49,8.86,62.11,44.32,53.24,79.78,0,8.86-8.88,26.59-8.88,35.45v35.47l-8.87,8.86c0,17.73,0,26.59,8.87,35.46-8.87,8.86-8.87,17.72-17.75,17.72v79.78c-8.87,0-8.87,8.87-17.75,17.73,0,8.87,8.88,17.73,8.88,17.73-8.88,8.87-8.88,17.73-8.88,26.6-8.86,8.86-8.86,26.59-8.86,44.31,0,0-26.63,44.33-35.51,44.33s-8.87,0-17.74-8.86c-8.88,0-8.88,8.86-8.88,0s8.88-8.87,17.75-17.73c8.87-17.74,0-35.46,0-53.19,0-8.86,8.87-26.59,8.87-35.46v-26.59c0-8.87,0-62.05-8.87-70.92h-8.87c-17.75-8.86-26.63,35.46-44.37,44.33-26.63,17.72-62.12-8.87-79.87-8.87s-26.62,17.73-35.49,8.87c-8.88,0-8.88-8.87-8.88-8.87-8.87-8.86-8.87-8.86-17.75-8.86h-8.87c-35.5,35.45-17.75,97.51-71,115.23l-35.49-8.86c-26.62-26.59-26.62-53.19-35.5-79.78s-17.75-44.32-26.62-70.92c0,0,8.87-8.86,8.87-17.72-8.87,0-8.87-8.87-8.87-8.87,0-8.86,8.87-8.86,8.87-17.72,0,0-8.87-8.87-8.87-17.73,0,0,8.87-8.87,8.87-17.73,0-17.74,0-44.33,8.88-62.05,0-8.87,8.87-17.73,8.87-26.6v-17.73c0-17.73,8.88-35.46,17.75-53.18,0-26.6,17.75-88.65,62.12-88.65,35.5,8.87,44.37,70.92,35.5,97.51-8.88,17.73-26.62,44.32-26.62,62-8.88,26.6,0,44.32-8.88,70.91,0,8.87-8.88,26.6-8.88,35.47s0,8.86,8.88,17.73c0,0-8.88,8.86-8.88,17.72v35.46s0,8.86-8.87,8.86c8.87,8.87,8.87,17.73,8.87,26.6V4246s0,8.86,8.88,8.86c0,0,8.88-8.86,17.75-8.86l26.62-53.19v-17.73c8.88-8.86,17.75-17.73,17.75-35.45,8.87-17.73,8.87-26.6,8.87-44.33,17.75-44.32,62.12-97.51,79.87-133,0-8.86,0-8.86-8.87-17.72-26.63,8.86-79.87-35.46-53.25-62.06,0-8.86,17.75-8.86,26.62-8.86,0-8.86,8.88-8.86,8.88-17.73,17.75-8.86,44.37-8.86,62.11-17.73,0-8.86,0-8.86,8.88-17.73,17.75,0,35.49-8.86,53.24-17.73,8.88,0,17.75-8.86,17.75-8.86,26.63-8.86,44.38-17.73,71-26.59,0,0,8.88,8.86,17.75,8.86,8.88-8.86,17.75-8.86,26.63-8.86,26.62,8.86,44.37,35.45,71,53.18ZM819.32,4130.8h0c-8.87,0-35.49,17.73-35.49,26.59v8.87h17.74c8.88-8.87,17.75-26.59,17.75-35.46Z" transform="translate(-393.37)"/><path class="cls-2" d="M1431.63,3749.63c17.75,26.59,8.88,26.59,17.75,35.46,0,8.86,8.88,8.86,8.88,17.72v26.6c8.87,8.86,8.87,8.86,8.87,17.73-8.87,17.73-8.87,26.59-17.75,35.45v35.46c0,8.87,0,8.87-8.87,17.73v35.46c0,17.72-17.75,62.05,8.87,79.78,17.75,0,26.62,0,35.5-8.86,17.75,0,26.62,8.86,44.37,8.86,8.87,8.86,0,44.32-17.75,53.19h-17.75c-8.87,8.86-8.87,17.73-17.75,26.59s-17.74,0-17.74,8.87l-26.63,26.59c-8.87,17.72,0,97.5,8.88,115.23,17.75,35.46,79.86,26.6,79.86,79.78-8.87,17.73-53.24,53.19-71,53.19,0-17.73,17.75-26.59,8.88-44.33-17.75-17.72-26.63-17.72-35.5-26.59-17.75-8.86-44.37-44.32-44.37-53.18-8.87-35.46,17.75-70.92,0-97.51-44.37-8.87-35.49,17.73-71,44.32h-26.63c-8.87,17.73-26.62,26.59-35.49,35.46-8.88,0-8.88,8.86-17.75,8.86s-17.75,8.87-26.62,17.73c-26.62,26.6-44.37,26.6-71,26.6-44.37-62.06,17.74-124.11,35.49-177.29,0-8.86-8.87-17.73-17.75-17.73-17.74,8.87-17.74,0-35.49,0,0-8.86-8.88-8.86-17.75-17.73,8.87-17.73,8.87-35.46,26.62-44.32h17.75l17.75-17.73c8.87-8.86,26.62-8.86,44.37-26.59,17.75-26.6,8.87-133,53.24-150.7,26.62-8.86,62.12,44.32,62.12,62.05,8.88,26.59,0,88.65-8.87,106.38l-17.75,17.72v44.33c0,17.73-8.88,53.18,17.75,62.05,17.75-8.87,26.62-8.87,35.5-17.73,8.86-17.73,26.62-44.32,35.49-62.06,8.87-44.31,0-88.64,8.87-133,0-17.73,8.88-35.46,8.88-44.32,0-17.73-8.88-26.6-8.88-35.46v-26.59c-8.87-8.87-8.87-17.73-17.74-35.46,0-8.87,8.87-26.59,8.87-44.32,17.75-17.73,35.5-17.73,53.24-17.73Zm-248.47,460.95-8.87-8.87c-17.75,8.87-35.5,62.05-35.5,70.92s8.87,17.73,8.87,17.73h8.88c17.75-17.73,35.49-26.6,44.37-44.32,0-17.73,0-26.6-17.75-35.46Z" transform="translate(-393.37)"/><path class="cls-2" d="M2248.05,3731.9c17.75-8.86,26.62-8.86,44.37-17.73,17.75,0,35.49,17.73,44.37,35.46,8.88,0,8.88,8.87,17.74,8.87,17.75,26.59-8.86,70.91,0,106.37h8.88c8.87,0,26.62-8.87,26.62-17.73,8.88-26.6-8.87-35.46-8.87-62v-17.73c8.87-26.59,0-35.46,8.87-53.19,53.24-17.73,44.38-17.73,79.87,8.87,26.62,0,44.37-44.32,71-17.73,26.63,35.46,0,53.19-8.88,79.78-8.86,8.86-8.86,8.86-8.86,17.72-8.88,8.87-8.88,8.87-17.75,8.87,0,8.86-8.88,26.59-17.75,26.59,0,8.87-8.88,8.87-17.75,8.87-8.88,8.86-17.75,17.73-17.75,26.59v8.86c17.75,8.87,35.5,0,53.25-8.86H2532c8.88,0,17.75-8.86,26.63-8.86,44.38-8.87,88.74,8.86,71,62.05H2603c-8.88,8.86-17.76,8.86-26.63,17.73l-8.87-8.87c-8.88,8.87-8.88,8.87-17.76,8.87H2532s-8.86,0-17.74,8.86c-8.87,0-17.75-8.86-35.5,0-8.87,17.73,0,70.92,0,88.65,8.88,26.59-17.75,44.31-17.75,62.05v44.32c-17.75,8.86-26.61,17.73-35.49,26.59,17.74,26.59,35.49,26.59,44.37,53.19,0,8.86,0,17.73-8.88,35.45l-8.87,8.87v8.86c17.75,8.87,35.5,8.87,53.25,8.87,8.87,8.86,26.61,8.86,44.36,17.73,17.76,35.45-8.87,70.91-53.24,62,0-8.86-8.87-17.72-8.87-26.59-8.88-8.86-62.12-8.86-71-8.86-26.63,26.59-17.75,70.92-35.5,97.51h-17.75c-17.74-17.73-26.62-62.06-26.62-62.06-8.88,0-17.75-8.86-26.62,0l-8.88,8.87c-8.87,8.87-17.75,8.87-26.62,17.73,0,0,0,8.87-8.87,8.87-17.75,17.72-44.37,8.86-53.25,0-8.87-17.73,8.88-35.47,8.88-53.19,8.87-8.87,0-35.46,26.62-35.46,17.75,44.32,88.74,8.87,106.48-17.73-8.86-17.73-8.86-8.86-26.62-8.86h-17.74c-8.88,0-17.75,0-17.75,8.86-17.75,0-35.5-17.73-35.5-35.46v-8.86c35.5-17.73,88.75-26.59,97.61-53.19v-8.86c-8.86-8.87-35.49-8.87-44.36-26.59,0-44.32,44.36-35.46-17.75-62.05h0v-8.87c17.75-17.73,44.37-17.73,26.62-62.05,0,0-8.87-8.86-8.87-17.73-8.88-8.86-8.88-8.86-17.75-8.86-44.37,17.73-142,70.91-177.49,62.05-8.87,0-26.61,0-26.61-17.73v-17.73c8.86-8.86,26.61-8.86,35.49-17.73l8.87-8.86c8.88-8.87,17.75-8.87,17.75-8.87,35.5-8.87,44.37-17.73,62.12-35.46-8.87,0-8.87,0-8.87-8.86-8.88-8.86-26.62-17.73-35.5-26.59-8.87-17.73,8.88-97.51,17.75-97.51,26.62-17.73,44.37,0,62.12-8.87a122.89,122.89,0,0,0,0-79.77v-8.87Zm8.87,177.29c-8.87,8.86-26.62,26.59-17.75,35.46h8.88c8.87,0,17.75-8.87,26.62-17.73h0c0-8.87-8.87-8.87-8.87-17.73Zm-35.49,35.46c0,8.86,0,8.86-8.88,8.86h8.88v-8.86Z" transform="translate(-393.37)"/></svg>
